<svg xmlns="http://www.w3.org/2000/svg" xml:space="preserve" viewBox="0 0 800 300">
  <path fill="#34495e" d="M794.49 297.83s-3.09-.21-8.87-.6c-4.99-.28-11.99-.78-20.75-1.25h1.59v-3.32l-.27-.38v-28.54l-.28-.68v-18.63l-.43-.57v-9.19l.26-.72v-.46l-.26-.21v-7.92l-2.04-1.28v.77h-.36l-1.53-1.45h-1.96v2.68h-2.13v-2.68h-1.96l-1.53 1.45h-.36v-.77l-2.04 1.28v7.92l-.26.21v.46l.26.72v2.44h-.73l-9.52-29.08-.08-3.78c.34-.06.6-.36.6-.72 0-.37-.27-.67-.62-.72v-2.08h1.21l-.39-.39.39-.39h-1.21v-.47c0-.05-.04-.1-.1-.1s-.1.04-.1.1v3.32c-.36.04-.64.35-.64.72 0 .36.26.65.6.72l-.08 3.78-5.69 17.38c-.51-.64-1.04-1.27-1.6-1.87h.05c.53 0 1.03-.21 1.41-.58.37-.38.58-.88.58-1.41 0-.53-.21-1.03-.58-1.41-.38-.38-.88-.58-1.41-.58-.53 0-1.03.21-1.41.58-.4.4-.59.93-.58 1.46-.68-.62-1.37-1.22-2.09-1.79.53-.07 1.02-.36 1.34-.8.64-.89.45-2.14-.44-2.78-.34-.25-.75-.38-1.17-.38-.64 0-1.24.31-1.61.82-.33.46-.44 1.01-.35 1.52-.76-.51-1.54-.99-2.34-1.44.51-.16.94-.51 1.19-1 .24-.47.28-1.01.12-1.52-.17-.51-.52-.92-.99-1.16-.28-.14-.59-.22-.91-.22-.75 0-1.43.42-1.77 1.09-.24.47-.28 1.01-.12 1.52 0 .01.01.02.01.02-.82-.38-1.66-.73-2.52-1.05.47-.23.84-.65 1.01-1.17.34-1.04-.24-2.17-1.28-2.51-.2-.07-.41-.1-.62-.1-.87 0-1.63.56-1.89 1.38-.17.53-.11 1.08.13 1.54-.87-.25-1.76-.46-2.65-.64.42-.3.73-.76.82-1.31.17-1.08-.57-2.11-1.66-2.28-.1-.02-.21-.02-.31-.02-.98 0-1.81.7-1.96 1.68-.09.55.06 1.08.37 1.5-.9-.1-1.8-.18-2.72-.21.37-.36.6-.87.6-1.42 0-1.1-.89-1.99-1.99-1.99s-1.99.89-1.99 1.99c0 .56.23 1.06.6 1.42-.92.04-1.82.11-2.72.21.31-.41.46-.95.37-1.5-.15-.97-.98-1.68-1.96-1.68-.1 0-.21.01-.31.02-.53.08-.99.37-1.3.8-.31.43-.44.96-.36 1.48.09.55.39 1.01.82 1.31-.9.18-1.78.39-2.65.64 0-.01.01-.01.01-.02.24-.47.29-1.01.12-1.52-.27-.82-1.03-1.38-1.89-1.38-.21 0-.42.03-.62.1-.51.16-.92.52-1.16.99-.24.47-.29 1.01-.12 1.52.17.52.54.93 1.01 1.17-.85.32-1.69.66-2.52 1.05 0-.01.01-.02.01-.02.16-.51.12-1.05-.12-1.52-.34-.67-1.02-1.09-1.77-1.09-.31 0-.62.07-.9.22-.98.5-1.37 1.7-.87 2.68.25.49.69.84 1.19 1-.8.45-1.58.93-2.34 1.44 0-.01.01-.02.01-.04.08-.53-.04-1.05-.35-1.48-.37-.52-.98-.82-1.61-.82-.42 0-.82.13-1.17.38-.43.31-.72.77-.8 1.3-.08.53.04 1.05.36 1.48.32.44.81.73 1.34.8-.72.57-1.42 1.17-2.1 1.79v-.05c0-.53-.21-1.03-.58-1.41-.38-.38-.88-.58-1.41-.58-.53 0-1.03.21-1.41.58-.38.38-.58.88-.59 1.41 0 .53.21 1.03.59 1.41.38.38.88.58 1.41.58h.05c-.62.68-1.23 1.38-1.79 2.1-.07-.52-.34-1.01-.8-1.34-.34-.25-.75-.38-1.17-.38-.63 0-1.24.31-1.61.82-.65.89-.45 2.14.44 2.78.34.25.75.38 1.17.38.12 0 .24-.01.35-.04-.51.76-.99 1.54-1.44 2.34-.15-.5-.5-.94-1-1.19-.28-.15-.59-.22-.9-.22-.75 0-1.43.42-1.77 1.09-.5.98-.11 2.18.87 2.68.28.14.59.22.9.22.22 0 .44-.04.64-.11-.38.82-.73 1.66-1.05 2.52l-.01-.02c-.24-.48-.65-.82-1.16-.99-.2-.07-.41-.1-.62-.1-.87 0-1.63.55-1.89 1.38-.34 1.04.23 2.17 1.28 2.51.2.06.41.1.62.1.33 0 .64-.08.92-.22-.25.87-.46 1.75-.63 2.64 0-.01-.01-.01-.01-.02-.31-.43-.77-.71-1.3-.8-.1-.01-.21-.02-.31-.02-.99 0-1.81.71-1.96 1.68-.17 1.08.57 2.11 1.65 2.28.1.02.21.03.31.03.45 0 .85-.15 1.19-.4-.1.9-.18 1.8-.21 2.72-.01 0-.01-.01-.02-.01-.37-.38-.88-.59-1.41-.59-1.1 0-1.99.89-1.99 1.99s.89 1.99 1.99 1.99c.53 0 1.03-.21 1.41-.59.01-.01.01-.01.02-.01.04.92.11 1.83.21 2.72-.33-.25-.74-.4-1.19-.4-.1 0-.21.01-.31.03-.53.08-.99.36-1.3.8-.31.43-.44.96-.36 1.48.15.97.98 1.68 1.96 1.68.1 0 .21-.01.31-.02.53-.08.99-.37 1.3-.8 0-.01.01-.01.01-.02.18.89.39 1.77.63 2.64-.28-.14-.59-.23-.92-.23-.21 0-.42.03-.62.1-.51.16-.92.52-1.16.99-.24.48-.28 1.02-.12 1.52.27.82 1.03 1.38 1.89 1.38.21 0 .42-.03.62-.1.51-.16.92-.52 1.16-.99l.01-.02c.32.86.67 1.7 1.05 2.52-.2-.07-.42-.11-.64-.11-.31 0-.62.08-.9.22-.47.24-.83.65-.99 1.16-.16.51-.12 1.05.12 1.52.34.67 1.02 1.09 1.77 1.09.32 0 .62-.07.9-.22.48-.24.82-.65.99-1.16 0-.01 0-.02.01-.03.45.8.93 1.58 1.44 2.34-.11-.02-.23-.04-.35-.04-.43 0-.83.13-1.17.38-.43.31-.71.78-.79 1.3-.08.52.04 1.05.36 1.48.37.51.98.82 1.61.82.42 0 .83-.13 1.17-.38.46-.33.73-.82.8-1.34.57.72 1.17 1.42 1.79 2.1h-.05c-.53 0-1.03.2-1.41.58-.38.38-.59.88-.59 1.41 0 .53.21 1.03.59 1.41.38.38.88.58 1.41.58.53 0 1.03-.21 1.41-.58.4-.4.59-.93.58-1.45.67.62 1.37 1.22 2.1 1.8-.54.07-1.02.36-1.34.8-.16.21-.27.45-.33.7h-9.34v-1.02c0-.09-.07-.17-.17-.17h-2.67v-3.76l.18-.18h.27l-1.62-3.87v-.17h-.01v-3.46c.01.02.02.03.05.03h.44c.03 0 .05-.03.05-.05 0-.03-.02-.06-.05-.06-.05 0-.05-.18-.05-.28 0-.16-.06-.21-.11-.23v-.1c0-.18-.05-.32-.15-.41-.06-.06-.13-.09-.18-.1v-.72c0-.06-.05-.12-.13-.12-.06 0-.12.05-.12.12v.72c-.05.01-.12.04-.18.1-.1.08-.15.22-.15.41v.1c-.05.02-.12.07-.12.23 0 .09 0 .28-.04.28-.03 0-.05.03-.05.06s.02.05.05.05h.44c.03 0 .04-.01.05-.03v3.46h-.01v.17l-1.62 3.87h.27l.18.18v3.76h-2.66c-.09 0-.17.07-.17.17v1.02h-38.27v-.53c0-.08-.07-.17-.17-.17h-2.1v-.07c0-.28-.09-.4-.17-.45v-2.71c0-.03-.01-.05-.03-.07v-7.63c0-.06-.05-.1-.1-.1-.06 0-.09.05-.09.1v.58c-.05.01-.11.04-.16.08-.08.07-.12.18-.12.33v.08c-.04.02-.09.06-.09.19 0 .07 0 .23-.04.23-.03 0-.04.02-.04.04 0 .03.01.05.04.05h.37c.02 0 .03-.01.04-.02v6.07c-.02.02-.03.05-.03.07v2.71c-.08.05-.17.17-.17.45v.07h-2.07c-.09 0-.17.08-.17.17v.53h-26.57v-60.86c.56-.2 1.16-.6 1.16-1.42v-3.47s.25-.12.25-.61h-.08v-11.1l.62-.37v-.25s-.84-.21-1.17-2.25c-.31-1.91-.97-5.55-1.61-6.56v-2.47c.16-.05.29-.21.29-.39 0-.23-.19-.42-.42-.42-.23 0-.42.19-.42.42 0 .18.12.34.29.39v2.47c-.64 1-1.31 4.65-1.62 6.56-.33 2.04-1.17 2.25-1.17 2.25v-6.33l.62-.65s-1.31-1.24-2.41-3.75c-1.2-2.73-3.64-9.62-4.25-11.37.09-.08.15-.2.15-.34 0-.19-.12-.36-.3-.42v-3.86c.1-.06.16-.16.16-.27 0-.17-.14-.32-.32-.32-.17 0-.32.14-.32.32 0 .12.07.22.16.27v3.86c-.17.06-.3.23-.3.42 0 .14.06.26.16.34-.6 1.71-3.06 8.62-4.26 11.37-1.1 2.51-2.41 3.75-2.41 3.75l.62.61v6.37s-.84-.21-1.17-2.25c-.31-1.91-.98-5.57-1.62-6.56v-2.47c.17-.05.29-.21.29-.39 0-.23-.19-.42-.42-.42-.23 0-.42.19-.42.42 0 .18.12.34.29.39v2.47c-.64 1-1.31 4.65-1.62 6.56-.33 2.04-1.17 2.25-1.17 2.25v.25l.62.37v11.1h-.08c0 .48.25.61.25.61v3.47c0 .81.6 1.22 1.16 1.42v20.36h-22.06l-.01-1.04c-.01-.84 0-1.69-.02-2.53l-.04-2.53c-.02-.76-.04-1.51-.06-2.27.1-.04.17-.14.17-.26 0-.15-.12-.28-.28-.28-.16 0-.28.13-.28.28 0 .12.07.22.17.26-.03.76-.04 1.51-.07 2.27l-.02 1.36-.86-.53v-1.28h.21c.05 0 .1-.04.1-.1v-.31l-.08-.5c.07-.05.12-.14.1-.23-.01-.09-.08-.16-.16-.19l-.06-.37c.07-.05.12-.14.1-.23-.01-.09-.08-.16-.17-.19l-.06-.37c.07-.05.12-.14.1-.23-.01-.1-.08-.16-.17-.19l-.06-.37c.03-.02.04-.03.06-.05.04-.05.05-.11.04-.17-.01-.09-.08-.16-.17-.19l-.06-.37c.07-.05.12-.14.1-.23-.02-.09-.08-.16-.17-.19l-.06-.37c.02-.01.04-.03.06-.05.03-.05.05-.11.04-.17-.01-.09-.08-.17-.17-.19l-.06-.37c.08-.05.12-.14.1-.23-.01-.1-.08-.16-.16-.19l-.06-.37c.07-.05.12-.14.1-.23-.02-.09-.08-.16-.17-.19l-.06-.37c.02-.01.04-.03.06-.05.04-.05.06-.11.04-.17-.01-.1-.08-.17-.17-.19l-.05-.37c.07-.05.12-.14.1-.23-.02-.09-.08-.16-.17-.19l-.06-.37c.07-.05.12-.14.1-.23-.01-.09-.08-.16-.17-.19l-.06-.37c.07-.05.12-.14.1-.23-.01-.1-.08-.16-.17-.19l-.11-.71c.26-.12.44-.38.44-.68 0-.35-.25-.65-.58-.73 0-.83-.02-1.65-.05-2.47.11-.04.18-.15.18-.27 0-.16-.13-.29-.29-.29-.16 0-.29.13-.29.29 0 .12.07.23.18.27-.04.82-.05 1.65-.05 2.47-.33.07-.58.37-.58.73 0 .3.18.56.44.68l-.11.71c-.09.03-.15.1-.17.19-.02.09.03.18.1.23l-.06.37c-.09.03-.15.1-.17.19-.01.09.03.18.1.23l-.06.37c-.09.03-.15.1-.17.19-.01.09.03.18.1.23l-.06.37c-.09.03-.15.1-.17.19-.01.06 0 .12.04.17.02.02.04.04.06.05l-.05.37c-.09.03-.16.1-.17.19-.01.09.03.18.11.23l-.06.37c-.09.03-.15.1-.17.19-.01.09.03.18.1.23l-.06.37c-.09.03-.15.1-.17.19-.01.06.01.12.04.17l.06.06-.06.37c-.09.03-.15.1-.17.19-.01.09.03.18.1.23l-.06.37c-.09.03-.15.1-.17.19-.01.06 0 .12.04.17.02.02.04.04.06.05l-.06.37c-.08.03-.15.1-.17.19-.01.09.03.18.1.23l-.06.37c-.08.03-.15.1-.17.19-.01.09.03.18.1.23l-.06.36c-.09.03-.15.1-.17.19-.01.09.03.18.1.23l-.08.52v.3c0 .06.04.1.1.1h.21v1.28l-.86.53-.02-1.36c-.02-.76-.04-1.51-.06-2.27.1-.04.17-.14.17-.26 0-.15-.13-.28-.28-.28-.15 0-.28.13-.28.28 0 .12.07.22.18.26-.03.76-.04 1.51-.07 2.27l-.04 2.53c-.02.84-.02 1.69-.02 2.53l-.01 1.04H519.1l-5 2.75-.34.22h-1.5v.96l-1.92 1.3v-2.26h-1.96v2.26h-1.92v-2.26h-1.96v-5.2h-.49v-3.72h-2.18L490 218.33v-2.03c.09-.04.15-.13.15-.23 0-.14-.11-.25-.25-.25s-.25.11-.25.25c0 .1.06.19.15.23v2.03l-11.83 11.62h-2.18v3.72h-.49v42.51c-1.97-4.89-4.92-14-5.32-25.56-.62-17.9-.08-29.48-2.33-38.7-2.25 9.22-1.61 20.26-2.33 38.7-.24 6.05-1.15 11.44-2.26 15.89-.01.01-.03.01-.04.02l-.65-.67c.09-.09.1-.24.01-.32-.09-.09-.23-.09-.32 0l-.66-.66c.09-.09.1-.23.01-.32-.09-.09-.23-.09-.33 0l-.65-.66c.09-.09.09-.24.01-.33-.09-.09-.23-.09-.32 0l-.66-.66c.09-.09.1-.24.01-.32-.09-.09-.23-.09-.33 0l-.65-.67c.09-.09.1-.23.01-.32-.09-.09-.23-.09-.32 0l-.65-.66c.09-.09.1-.23.01-.32-.09-.09-.23-.09-.32 0l-1.25-1.28v-12.48h.93v-2.05h-1.23v-23.54l.62-.96v-1.87h-1.37v-5.89h.82v-2.57h-.91v-2.48l.09-.29V206l-.11-1.03c.11-.02.19-.13.18-.27-.01-.13-.12-.22-.23-.21l-.1-.98c.11-.02.19-.14.17-.27-.01-.13-.11-.23-.22-.21l-.1-.98c.11-.02.19-.13.17-.27-.01-.13-.11-.22-.22-.21l-.1-.94c.1-.01.16-.1.16-.21 0-.12-.08-.21-.19-.21-.1 0-.19.09-.19.21 0 .11.07.2.16.21l-.1.94c-.11-.02-.21.08-.22.21-.01.13.07.25.18.27l-.1.98c-.06-.01-.12.02-.17.07h-.5l-.11-1.03c.11-.02.19-.14.18-.27-.01-.13-.11-.22-.22-.21l-.1-.98c.11-.02.19-.14.17-.27-.01-.13-.11-.23-.22-.21l-.1-.98c.11-.02.19-.14.17-.27-.01-.13-.11-.22-.22-.21l-.1-.94c.09-.02.16-.1.16-.21 0-.12-.08-.21-.19-.21-.1 0-.19.09-.19.21 0 .11.07.2.16.21l-.1.94c-.11-.02-.21.08-.23.21-.01.13.07.25.18.27l-.1.98c-.11-.02-.21.08-.23.21-.02.13.07.25.18.27l-.1.98c-.03-.01-.07 0-.1.02l-.05-.39c.11-.02.19-.14.17-.26-.01-.13-.12-.22-.22-.2l-.02-.16-.1-.8c.11-.02.19-.14.17-.26-.02-.13-.12-.22-.23-.2l-.12-.95c.11-.02.19-.14.17-.26-.01-.13-.12-.22-.23-.2l-.12-.96c.11-.02.19-.14.17-.26-.01-.13-.12-.22-.23-.2l-.12-.95c.11-.02.19-.14.17-.27-.02-.13-.12-.22-.23-.2l-.12-.96c.11-.02.19-.14.17-.26-.02-.13-.12-.22-.23-.2l-.12-.96c.11-.02.19-.13.17-.26-.02-.13-.12-.22-.23-.2l-.12-.96c.11-.02.19-.14.17-.27-.02-.12-.12-.22-.23-.2l-.03-.24-.09-.72c.11-.02.19-.14.17-.27-.02-.13-.12-.22-.23-.2l-.12-.96c.11-.02.19-.14.17-.27-.01-.13-.12-.22-.23-.2l-.12-.96c.11-.02.19-.13.17-.26-.02-.13-.12-.22-.23-.2l-.12-.96c.11-.02.19-.14.17-.26-.02-.13-.12-.22-.23-.2l-.12-.96c.11-.02.19-.13.17-.26-.02-.13-.12-.22-.23-.2l-.12-.95c.11-.02.19-.14.17-.27-.02-.13-.12-.22-.23-.2l-.11-.85-.15-1.23s.17-.04.17-.38c0-.19-.12-.25-.23-.26v-1.64h.32c.04.1.14.17.24.17.15 0 .28-.14.28-.32s-.12-.32-.28-.32c-.1 0-.2.07-.24.17h-.32v-.94c.09-.07.15-.18.15-.31 0-.2-.14-.37-.32-.37s-.32.17-.32.37c0 .13.06.24.15.31v.94h-.32c-.04-.1-.14-.17-.24-.17-.15 0-.27.14-.27.32 0 .17.13.32.27.32.1 0 .2-.07.24-.17h.32v1.64c-.11.02-.23.08-.23.26 0 .34.17.38.17.38l-.15 1.23-.1.85c-.11-.02-.22.07-.23.2-.02.13.06.25.17.27l-.12.95c-.11-.02-.21.07-.23.2-.02.13.06.24.17.26l-.12.96c-.11-.02-.21.07-.23.2-.01.13.06.25.17.26l-.12.96c-.11-.02-.21.07-.23.2-.02.13.06.25.17.26l-.12.96c-.11-.02-.21.07-.23.2-.02.13.06.25.17.27l-.12.96c-.11-.02-.21.07-.23.2-.02.13.06.25.17.27l-.09.72-.03.24c-.11-.02-.21.07-.23.2-.02.13.06.25.17.27l-.12.96c-.11-.02-.22.07-.23.2-.02.13.06.25.17.26l-.12.96c-.11-.02-.21.07-.23.2-.02.13.06.25.17.26l-.12.96c-.11-.02-.21.07-.23.2-.02.13.06.24.17.27l-.12.95c-.11-.02-.21.07-.23.2-.02.13.06.25.17.26l-.12.96c-.11-.02-.21.07-.23.2-.02.13.06.25.17.26l-.12.95c-.11-.02-.21.07-.23.2-.02.12.06.24.17.26l-.1.8-.02.16c-.11-.02-.21.07-.23.2-.02.13.06.25.17.26l-.05.39c-.03-.02-.06-.02-.1-.02l-.1-.98c.11-.02.19-.14.17-.27-.01-.13-.11-.23-.23-.21l-.1-.98c.11-.02.19-.14.18-.27-.01-.13-.11-.22-.23-.21l-.1-.94c.09-.02.16-.1.16-.21 0-.12-.08-.21-.19-.21-.1 0-.18.09-.18.21 0 .11.07.2.16.21l-.1.94c-.11-.02-.21.08-.22.21-.02.13.06.25.17.27l-.1.98c-.11-.02-.21.08-.22.21-.02.13.07.25.17.27l-.1.98c-.11-.02-.21.08-.23.21-.01.13.06.25.18.27l-.11 1.03h-.5c-.04-.05-.1-.08-.17-.07l-.1-.98c.11-.02.19-.13.18-.27-.01-.13-.11-.22-.22-.21l-.1-.94c.09-.01.16-.1.16-.21 0-.12-.08-.21-.19-.21-.1 0-.18.09-.18.21 0 .11.07.2.16.21l-.1.94c-.11-.02-.21.08-.22.21v.03c0 .12.08.22.18.23l-.1.98c-.11-.02-.21.08-.23.21-.01.13.07.25.17.27l-.1.98c-.11-.02-.21.08-.22.21-.01.13.06.25.17.27l-.11 1.03v1.21l.09.29v2.48h-.91v2.57h.82v5.89h-1.37v1.87l.62.96v21.53l-.96-1.36c.1-.07.13-.23.05-.34-.08-.11-.22-.14-.33-.06l-.58-.82c.1-.08.13-.23.05-.33-.08-.11-.22-.14-.33-.07l-.58-.82c.11-.07.13-.23.05-.33-.08-.11-.23-.14-.33-.07l-.58-.83c.1-.07.13-.22.05-.33-.08-.11-.23-.14-.33-.07l-.58-.83c.11-.07.13-.22.05-.33-.07-.11-.23-.14-.33-.06l-.58-.83c.1-.07.13-.22.05-.33-.08-.11-.23-.14-.33-.06l-.58-.83c.11-.07.13-.22.05-.34-.08-.11-.23-.14-.33-.07l-.58-.82c.11-.08.13-.22.05-.33-.08-.11-.23-.14-.33-.07l-.58-.82c.1-.07.13-.22.05-.33-.08-.11-.23-.14-.33-.07l-1.08-1.53v-2.15l-.07-.52c.07-.01.12-.08.11-.16-.01-.08-.08-.14-.15-.13l-.09-.64c.07-.01.12-.08.11-.16-.01-.08-.08-.14-.15-.13l-.09-.64c.07-.01.12-.08.11-.16-.01-.08-.08-.14-.15-.13l-.12-.82h-.04v-1.91h.1c.03.06.09.1.16.1.11 0 .2-.09.2-.2 0-.11-.09-.2-.2-.2-.07 0-.13.04-.16.1h-.1v-.51c.05-.04.09-.09.09-.17 0-.11-.09-.2-.2-.2-.11 0-.2.09-.2.2 0 .07.04.13.09.17v.51h-.1c-.04-.06-.1-.1-.17-.1-.11 0-.2.09-.2.2 0 .11.09.2.2.2.07 0 .13-.04.17-.1h.1v1.91h-.04l-.11.82c-.07-.01-.14.05-.15.13-.01.08.04.15.1.16l-.09.64c-.07-.01-.14.05-.15.13-.01.08.04.15.11.16l-.09.64c-.07-.01-.14.05-.15.13-.01.08.04.15.11.16l-.07.52v2.15l-1.08 1.53c-.11-.07-.25-.04-.33.07-.08.11-.05.26.05.33l-.58.82c-.1-.07-.25-.04-.33.07-.08.11-.06.26.05.33l-.58.82c-.11-.07-.25-.04-.33.07-.08.11-.06.26.05.34l-.58.83c-.11-.07-.25-.05-.33.06-.08.11-.06.26.05.33l-.58.83c-.1-.07-.26-.05-.33.06-.08.11-.06.26.05.33l-.58.83c-.11-.08-.25-.05-.33.07-.08.11-.06.26.05.33l-.58.83c-.1-.08-.25-.05-.33.07-.08.11-.05.26.05.33l-.58.82c-.11-.07-.25-.05-.33.07-.08.11-.05.26.05.33l-.58.82c-.1-.07-.25-.05-.33.06-.08.11-.05.26.05.34l-.96 1.36v-21.53l.62-.96v-1.87h-1.37v-5.89h.82v-2.57h-.91v-2.48l.09-.29V206l-.11-1.03c.11-.02.19-.13.18-.27-.01-.13-.11-.22-.23-.21l-.1-.98c.11-.02.19-.14.17-.27-.01-.13-.11-.23-.23-.21l-.1-.98c.11-.02.19-.13.17-.27-.01-.13-.11-.22-.22-.21l-.1-.94c.09-.01.16-.1.16-.21 0-.12-.08-.21-.19-.21-.1 0-.19.09-.19.21 0 .11.07.2.16.21l-.1.94c-.11-.02-.21.08-.22.21-.01.13.07.25.18.27l-.1.98c-.07-.01-.12.02-.17.07h-.5l-.11-1.03c.11-.02.19-.14.18-.27-.01-.13-.12-.22-.22-.21l-.11-.98c.11-.02.19-.14.18-.27-.01-.13-.11-.23-.22-.21l-.1-.98c.11-.02.19-.14.17-.27-.01-.13-.11-.22-.22-.21l-.1-.94c.09-.02.16-.1.16-.21 0-.12-.08-.21-.18-.21-.1 0-.19.09-.19.21 0 .11.07.2.16.21l-.1.94c-.11-.02-.21.08-.22.21-.01.13.07.25.17.27l-.1.98c-.11-.02-.21.08-.23.21-.02.13.07.25.18.27l-.1.98c-.03-.01-.07 0-.1.02l-.05-.39c.11-.02.19-.14.17-.26-.02-.13-.12-.22-.23-.2l-.02-.16-.1-.8c.11-.02.19-.14.17-.26-.02-.13-.11-.22-.23-.2l-.12-.95c.11-.02.19-.14.17-.26-.02-.13-.12-.22-.23-.2l-.12-.96c.11-.02.19-.14.17-.26-.02-.13-.12-.22-.23-.2l-.12-.95c.11-.02.19-.14.17-.27-.02-.13-.12-.22-.23-.2l-.12-.96c.11-.02.19-.14.17-.26-.02-.13-.12-.22-.23-.2l-.12-.96c.11-.02.19-.13.17-.26-.02-.13-.12-.22-.23-.2l-.12-.96c.11-.02.19-.14.17-.27-.02-.12-.12-.22-.23-.2l-.03-.24-.09-.72c.11-.02.18-.14.17-.27-.02-.13-.12-.22-.23-.2l-.12-.96c.11-.02.19-.14.17-.27-.01-.13-.12-.22-.23-.2l-.12-.96c.11-.02.19-.13.17-.26-.02-.13-.12-.22-.23-.2l-.12-.96c.11-.02.19-.14.17-.26-.02-.13-.12-.22-.23-.2l-.12-.96c.11-.02.19-.13.17-.26-.01-.13-.12-.22-.23-.2l-.12-.95c.11-.02.19-.14.17-.27-.01-.13-.12-.22-.23-.2l-.11-.85-.15-1.23s.17-.04.17-.38c0-.19-.12-.25-.23-.26v-1.64h.32c.05.1.14.17.24.17.15 0 .27-.14.27-.32s-.12-.32-.27-.32c-.1 0-.2.07-.24.17h-.32v-.94c.09-.07.15-.18.15-.31 0-.2-.14-.37-.32-.37s-.32.17-.32.37c0 .13.06.24.15.31v.94h-.32c-.05-.1-.14-.17-.24-.17-.15 0-.27.14-.27.32 0 .17.12.32.27.32.11 0 .2-.07.24-.17h.32v1.64c-.11.02-.23.08-.23.26 0 .34.17.38.17.38l-.15 1.23-.1.85c-.11-.02-.21.07-.23.2-.02.13.06.25.17.27l-.12.95c-.11-.02-.21.07-.23.2-.02.13.06.24.17.26l-.12.96c-.11-.02-.21.07-.23.2-.01.13.06.25.17.26l-.12.96c-.11-.02-.21.07-.23.2-.02.13.06.25.17.26l-.12.96c-.11-.02-.21.07-.23.2-.01.13.06.25.17.27l-.12.96c-.11-.02-.21.07-.23.2-.02.13.06.25.17.27l-.09.72-.03.24c-.11-.02-.21.07-.23.2-.02.13.06.25.17.27l-.12.96c-.11-.02-.22.07-.23.2-.02.13.06.25.17.26l-.12.96c-.11-.02-.22.07-.23.2-.02.13.06.24.17.26l-.12.96c-.11-.02-.21.07-.23.2-.01.13.06.24.17.27l-.12.95c-.11-.02-.22.07-.23.2-.02.13.06.25.17.26l-.12.96c-.11-.02-.21.07-.23.2-.02.13.06.25.17.26l-.12.95c-.11-.02-.21.07-.23.2-.01.12.06.24.17.26l-.1.8-.02.16c-.11-.02-.21.07-.23.2-.02.13.06.25.17.26l-.05.39c-.03-.02-.06-.02-.1-.02l-.1-.98c.11-.02.19-.14.17-.27-.01-.13-.11-.23-.23-.21l-.1-.98c.11-.02.19-.14.17-.27-.01-.13-.11-.22-.22-.21l-.1-.94c.09-.02.16-.1.16-.21 0-.12-.08-.21-.19-.21-.1 0-.18.09-.18.21 0 .11.07.2.16.21l-.1.94c-.11-.02-.21.08-.22.21-.02.13.06.25.18.27l-.1.98c-.11-.02-.21.08-.22.21-.02.13.06.25.17.27l-.1.98c-.11-.02-.21.08-.22.21-.01.13.06.25.17.27l-.11 1.03h-.5c-.04-.05-.1-.08-.17-.07l-.1-.98c.11-.02.19-.13.17-.27-.01-.13-.11-.22-.22-.21l-.1-.94c.09-.01.16-.1.16-.21 0-.12-.08-.21-.18-.21-.1 0-.19.09-.19.21 0 .11.07.2.16.21l-.1.94c-.11-.02-.21.08-.22.21-.02.13.06.25.17.27l-.11.98c-.11-.02-.21.08-.22.21v.03c0 .11.08.22.18.23l-.1.98c-.11-.02-.21.08-.23.21-.01.13.06.25.18.27l-.11 1.03v1.21l.09.29v2.48h-.9v2.57h.82v5.89h-1.37v1.87l.62.96v23.54h-1.22v2.05h.93v12.48l-1.25 1.28c-.09-.09-.23-.09-.32 0s-.08.23.01.33l-.65.66c-.09-.09-.23-.09-.32 0s-.08.23.01.32l-.65.67c-.09-.09-.24-.09-.32 0-.09.09-.08.23.01.32l-.66.66c-.09-.09-.23-.09-.32 0s-.08.23.01.33l-.65.66c-.09-.09-.24-.09-.32 0-.09.09-.08.23.01.32l-.65.66c-.09-.09-.24-.09-.32 0-.09.09-.08.23.01.32l-.65.67c-.09-.09-.24-.09-.33 0-.09.09-.08.24.01.33l-.65.66c-.08-.07-.18-.07-.27-.03v-11.93H362.2V163.9h-28.11v2h-21.67v2.52h21.67v2.01H310.5v2.52h23.59v2.01h-25.52v2.53h25.52v2.01h-27.45v2.52h27.45v2.01h-29.37v2.52h29.37v2.01h-31.3v2.53h31.3v2.01h-33.22v2.53h33.22v2.01h-35.15v2.52h35.15v2.01h-37.07v2.53h37.07v2.01h-39v2.53h39v2.01h-40.92v2.52h40.92v2.01h-42.85v2.53h42.85v2.01h-44.77v2.53h44.77v2.01h-46.7v2.53h46.7v2.01h-48.62v2.53h48.62v2.01H283.7v2.52h50.55v2.01h-52.47V241h52.47v2.01h-54.4v2.53h54.4v2.01h-56.32v2.52h56.32v2.01H276v2.53h58.25v2.01h-60.18V223.6l-28.8-47.96-20.19 43v55.43h9.4v15.41c-4.29.09-8.54.18-12.76.28V187.18h-9.9v-1.89h-40.96v1.89h-9.9v72.05c-1.12 1-2.72 2.01-4.63 2.01v-.45h-1.4v.45c-.91 0-1.76-.23-2.52-.58V218.8s.02-.24-.24-.24v-6.06s.02-.2-.15-.2h-2.17c-.17 0-.15.2-.15.2v6.06c-.26 0-.24.24-.24.24v.42c0-.04-.01-.21-.24-.21v-5.39s.02-.18-.15-.18h-2.17c-.17 0-.15.18-.15.18v5.39c-.25 0-.24.22-.24.22v2.26c0-.05-.01-.24-.24-.24v-8.76s.02-.2-.15-.2h-2.18c-.17 0-.15.2-.15.2v8.76c-.26 0-.24.25-.24.25v39.16c-.76.35-1.6.58-2.52.58v-.45h-1.4v.45c-3.82 0-6.41-4.03-6.41-4.03h-1.06s-2.34 3.64-5.86 3.99l-.61-38.45v-.65h.48c.1 0 .17-.07.17-.17v-.99c0-.09-.07-.17-.17-.17l-.48-.01v-2.84h1.11c.09 0 .17-.08.17-.17v-6.6c0-.09-.07-.17-.17-.17h-1.11v-2.95l.53-.03c.09 0 .16-.08.16-.17v-1.11c0-.09-.08-.17-.17-.17h-.52v-3.66c.09 0 .17-.07.17-.17l.23-2.12.13-.12c.04-.03.07-.08.07-.14l.06-1.32.11-.19c.01-.03.02-.06.02-.09v-1.22c0-.1-.08-.17-.17-.17h-.62v-1.42c0-.02 0-.05-.01-.07l-1.51-3.22c-.03-.06-.09-.1-.15-.1h-.19v-.9h.1c.09 0 .17-.07.17-.17v-.95c0-.09-.07-.17-.17-.17h-.1v-.84h.1c.09 0 .17-.07.17-.17v-.95c0-.1-.07-.17-.17-.17h-.1v-.84h.1c.09 0 .17-.07.17-.17v-.95c0-.09-.07-.17-.17-.17h-.1V170.8c0-.09-.08-.17-.17-.17h-.19v-17.06c0-.09-.07-.17-.17-.17v-12.1c0-.06-.03-.12-.09-.15v-8.53c.05-.07.1-.2.1-.41v-.49c0-.09-.08-.17-.17-.17h-.25l-.09-3.63c0-.06-.05-.11-.11-.11s-.11.05-.12.11l-.09 3.63h-.25c-.1 0-.17.08-.17.17v.49c0 .21.05.34.1.41v8.53c-.05.03-.09.08-.09.15v4.69h-.04c-.09 0-.17.07-.17.17v.45c0 .1.08.17.17.17h.04v.27h-.04c-.09 0-.17.07-.17.17v.45c0 .09.08.17.17.17h.04v.27h-.04c-.09 0-.17.07-.17.17v.45c0 .09.08.17.17.17h.04v4.48c-.09 0-.17.08-.17.17v4.16h-.05c-.09 0-.17.07-.17.17v.55c0 .1.08.17.17.17h.05v.46h-.05c-.09 0-.17.08-.17.17v.55c0 .1.08.17.17.17h.05v4.08h-.05c-.09 0-.17.08-.17.17v.55c0 .09.08.17.17.17h.05v.46h-.05c-.09 0-.17.08-.17.17v.55c0 .09.08.17.17.17h.05v.46h-.05c-.09 0-.17.07-.17.17v.55c0 .09.08.17.17.17h.05v.46h-.05c-.09 0-.17.07-.17.17v.55c0 .1.08.17.17.17h.05v1.65h-.19c-.09 0-.17.07-.17.17v4.2h-.1c-.09 0-.17.07-.17.17v.95c0 .09.07.17.17.17h.1v.84h-.1c-.09 0-.17.07-.17.17v.95c0 .09.07.17.17.17h.1v.84h-.1c-.09 0-.17.07-.17.17v.95c0 .09.07.17.17.17h.1v.84h-.1c-.09 0-.17.07-.17.17v.95c0 .09.07.17.17.17h.1v.84h-.1c-.09 0-.17.07-.17.17v.95c0 .09.07.17.17.17h.1v.84h-.1c-.09 0-.17.08-.17.17v.95c0 .09.07.17.17.17h.1v5.63h-.19c-.06 0-.13.04-.15.1l-1.51 3.22c-.01.02-.01.05-.01.07v1.42h-3.54c-.09 0-.17.07-.17.17v1.22c0 .03.01.06.02.09l.11.19.29 1.31c0 .05.03.11.07.14l.18.13.42 2.12c0 .09.08.17.17.17h2.44v3.66h-.9c-.09 0-.17.08-.17.17v.75c0 .09.07.17.17.17h.9v2.53h-.9c-.09 0-.17.07-.17.17v.75c0 .09.07.17.17.17h.9v2.52h-.9c-.09 0-.17.07-.17.17v.75c0 .09.07.17.17.17h.9v2.52h-.9c-.09 0-.17.08-.17.17v.75c0 .09.07.17.17.17h.9v2.52h-.9c-.09 0-.17.07-.17.17v.75c0 .1.07.17.17.17h.9v.65l-.03 2.11h-.87c-.09 0-.17.08-.17.17v.75c0 .1.07.17.17.17h.85l-.52 32.72c-.76-.79-1.2-1.46-1.2-1.46h-1.06s-2.59 4.03-6.41 4.03v-.45h-1.79v1.03h-1.45v6.45l-8.74-9.22h-.02v-1.63c.04-.03.07-.08.07-.14 0-.1-.08-.17-.17-.17-.1 0-.17.08-.17.17 0 .06.03.1.07.14v1.63h-2.14v-7.96l-2.12-1.4s-.6-.27-.6-.81c0 0 .21-.06.21-.48s-.06-.58-.05-1.18c.01-.6-.08-1.09-.53-1.09s-.54.49-.53 1.09c.01.6-.05.76-.05 1.18 0 .42.21.48.21.48 0 .54-.6.81-.6.81l-.87.58v-20.39l.1-.85-.1-.1-1.83-3.62v-.55h.08c.12 0 .22-.1.22-.22s-.1-.22-.22-.22h-.08v-.27s.04-.22-.25-.22c-.28 0-.25.22-.25.22v.27h-.08c-.12 0-.22.1-.22.22s.1.22.22.22h.08v.55L87 228.94l-.1.1.1.85v.85l-4.85-20.77-.2-4.25h.06c.11 0 .2-.09.2-.2 0-.11-.09-.2-.2-.2h-.11v-2.24c.25-.04.45-.24.49-.49h.48c.05 0 .1-.04.1-.1 0-.05-.05-.1-.1-.1h-.48c-.04-.25-.24-.45-.49-.49v-1.19c0-.05-.04-.1-.1-.1-.05 0-.1.04-.1.1v1.19c-.25.04-.45.24-.49.49h-.48c-.05 0-.1.05-.1.1s.04.1.1.1h.48c.04.25.24.45.49.49v2.24h-.11c-.11 0-.2.09-.2.2 0 .11.09.2.2.2h.06l-.2 4.25-4.85 20.77v-.85l.1-.85-.1-.1-1.83-3.62v-.55h.08c.12 0 .22-.1.22-.22s-.1-.22-.22-.22h-.08v-.27s.04-.22-.25-.22c-.28 0-.24.22-.24.22v.27h-.08c-.12 0-.22.1-.22.22s.1.22.22.22h.08v.55l-1.83 3.62-.1.1.1.85v20.39l-.87-.58s-.6-.27-.6-.81c0 0 .21-.06.21-.48s-.06-.58-.05-1.18c.01-.6-.07-1.09-.53-1.09s-.54.49-.53 1.09c.01.6-.05.76-.05 1.18 0 .42.21.48.21.48 0 .54-.6.81-.6.81l-2.12 1.4v7.96h-2.14v-1.63c.04-.03.07-.08.07-.14 0-.1-.08-.17-.17-.17-.09 0-.17.08-.17.17 0 .06.03.1.07.14v1.63h-.02l-10.35 10.91-.45.21v.27l.4.54v4.47l-1.26.82v8.68l-.36.88v10.06c-5.26.29-10.15.56-14.64.81-10.8.56-19.28 1.19-25.07 1.54-5.79.41-8.87.63-8.87.63-.55.04-1 .52-1.04 1.13h792.81c.04-1.15-.78-2.11-1.84-2.18zm-123.41-35.1c.03.02.06.03.09.06.06.06.1.17.1.3v.1c-.05.02-.12.07-.12.23 0 .08 0 .28-.03.28s-.04.01-.05.03v-1zm-73.96-63.24h.51v2.5h-.51v-2.5zm0 4.98h.51v2.5h-.51v-2.5zm-20.93 2.5h-.51v-2.5h.51v2.5zm0-4.98h-.51v-2.5h.51v2.5zm-494.23.08c.14.04.26.15.29.29h-.29v-.29zm0 .49h.29c-.04.15-.15.26-.29.3v-.3zm-21.48 74.29v3.81h-2.59v-3.81s-.07-1.56 1.3-1.56c1.36.01 1.29 1.56 1.29 1.56zM64.64 288v5.36H61V288s-.1-2.18 1.82-2.18c1.92 0 1.82 2.18 1.82 2.18zm4.4-2.08v2.65h-1.8v-2.65s-.05-1.08.9-1.08c.94-.01.9 1.08.9 1.08zm3.24 0v2.65h-1.8v-2.65s-.05-1.08.9-1.08c.95-.01.9 1.08.9 1.08zm12.35-45.72s.03-1.4 1.25-1.4c1.23 0 1.25 1.4 1.25 1.4v2.95h-2.51v-2.95zm-.14 23.8c.01-.05.02-.11.05-.16.03-.07.08-.14.14-.2.26-.26.69-.26.95 0 .19.19.24.46.16.69l-.01.03-.17.54.12.12.54-.17.03-.01c.23-.08.51-.03.69.16.26.26.26.69 0 .95-.06.06-.13.11-.2.14-.05.03-.11.04-.17.05l-2.1.64c-.1-.13-.2-.25-.31-.36-.11-.11-.23-.22-.36-.32l.64-2.1zm-2.72-61.93v.29h-.29c.03-.14.14-.25.29-.29zm-.3.49h.29v.3c-.14-.04-.25-.15-.29-.3zm.14 28.3h.52v.96h-.52v-.96zm-1 9.34s.02-1.4 1.25-1.4 1.25 1.4 1.25 1.4v2.95h-2.5v-2.95zm.29 22.27c.27 0 .5.15.6.38l.02.03.26.5h.17l.25-.5.02-.03c.11-.22.34-.38.6-.38.37 0 .67.3.67.67 0 .08-.02.16-.05.24-.02.06-.05.11-.08.15l-1.03 1.94c-.16-.02-.32-.03-.48-.03-.16 0-.32.01-.48.03l-1.03-1.94c-.03-.04-.06-.09-.08-.15-.03-.07-.05-.15-.05-.24.02-.37.32-.67.69-.67zm-4.31-22.27s.02-1.4 1.25-1.4 1.25 1.4 1.25 1.4v2.95h-2.51v-2.95zm-1.02 29.52c0-.27.16-.5.38-.6l.03-.02.5-.26v-.17l-.5-.26-.03-.02c-.22-.11-.38-.34-.38-.6 0-.37.3-.67.67-.67.08 0 .17.02.24.05l.15.08 1.93 1.03c-.02.16-.03.32-.03.48 0 .16.01.32.03.48l-1.93 1.03-.15.08c-.08.03-.16.04-.24.04-.37.01-.67-.29-.67-.67zm3.6 9.42v5.22h-2.69s.08-3.67 2.69-5.22zm.02 13.02h-2.71v-6.69h2.71v6.69zm.04-18.63-.05.16c-.03.07-.08.14-.14.2-.26.26-.69.26-.95 0-.19-.19-.24-.46-.16-.7l.01-.03.17-.53-.11-.12-.53.17-.03.01c-.23.08-.5.03-.69-.16-.26-.26-.26-.69 0-.95.06-.06.13-.1.2-.14l.17-.05 2.1-.64c.1.13.2.25.31.36.12.11.23.22.36.32l-.66 2.1zm.28-7.12c-.11.11-.22.23-.31.36l-2.1-.64-.17-.05c-.07-.03-.14-.08-.2-.14-.26-.26-.26-.69 0-.95.19-.19.46-.24.69-.16l.03.01.53.17.12-.12-.17-.54-.01-.03c-.08-.23-.03-.51.16-.69.26-.26.69-.26.95 0 .06.06.11.13.14.2l.05.16.64 2.09c-.11.11-.23.22-.35.33zm4.04 25.75h-3.37v-7.67h3.37v7.67zm0-9.29h-3.37v-4.17c.49-.15 1.05-.24 1.69-.24.63 0 1.19.09 1.69.24v4.17zm-3.32-8.49c0-.08.02-.16.05-.24l.08-.15 1.03-1.94c.16.02.32.03.48.03.16 0 .32-.01.48-.03l1.03 1.94.08.15c.03.08.05.16.05.24 0 .37-.3.67-.67.67-.27 0-.5-.16-.6-.38l-.02-.03-.25-.5h-.17l-.26.5-.02.03c-.11.22-.34.38-.6.38-.39 0-.69-.3-.69-.67zm1.63-3.81c-1 0-1.8-.81-1.8-1.8 0-1 .81-1.8 1.8-1.8 1 0 1.8.81 1.8 1.8.01.99-.8 1.8-1.8 1.8zm1.99.86c.13-.1.25-.2.36-.32.11-.11.22-.23.31-.36l2.1.64c.06.01.11.03.17.05.07.03.14.08.2.14.26.26.26.69 0 .95-.19.19-.46.24-.69.16l-.03-.01-.54-.17-.12.12.17.53.01.03c.08.23.03.51-.16.7-.26.26-.69.26-.95 0-.06-.06-.11-.13-.14-.2l-.05-.16-.64-2.1zm3.39 20.73h-2.71v-6.69h2.71v6.69zm-2.68-7.8v-5.22c2.61 1.55 2.69 5.22 2.69 5.22h-2.69zm3.18-15.26.03.02c.23.11.38.34.38.6 0 .37-.3.67-.67.67-.08 0-.16-.02-.24-.04l-.15-.08-1.93-1.03c.02-.16.03-.32.03-.48 0-.16-.01-.32-.03-.48l1.93-1.03c.05-.03.1-.06.15-.08.08-.03.15-.05.24-.05.37 0 .67.3.67.67 0 .27-.15.5-.38.6l-.03.02-.5.26v.17l.5.26zm5.51 16.82v2.65h-1.8v-2.65s-.05-1.08.9-1.08c.95-.01.9 1.08.9 1.08zm3.24 0v2.65h-1.8v-2.65s-.05-1.08.9-1.08c.95-.01.9 1.08.9 1.08zm6.23 2.08v5.36h-3.63V288s-.1-2.18 1.82-2.18c1.91 0 1.81 2.18 1.81 2.18zm3.11-11.15v3.81h-2.59v-3.81s-.07-1.56 1.29-1.56c1.37.01 1.3 1.56 1.3 1.56zm12.46-74.97h-.7v-.83h.7v.83zm.94-2.52h-2.06v-.31h2.06v.31zm.49 2.52h-.49v-.83h.49v.83zm1.85 0h-.7v-.83h.7v.83zm.75-2.52h-2.06v-.31h2.06v.31zm.88 2.52h-.7v-.83h.7v.83zm1.64 0h-.7v-.83h.7v.83zm.52-2.52h-2.02v-.31h2.02v.31zm40.09 59.75c-1.05-.97-1.65-1.9-1.65-1.9h-.52v-.83h2.17v2.73zm0-5.16h-2.17v-3.55h2.17v3.55zm0-11.96h-2.17v-3.56h2.17v3.56zm0-11.96h-2.17v-3.55h2.17v3.55zm0-5.97h-2.17v-3.56h2.17v3.56zm0-11.97h-2.17v-3.55h2.17v3.55zm0-11.95h-2.17v-3.56h2.17v3.56zm0-5.98h-2.17v-3.56h2.17v3.56zm3.37 65.77h-2.17v-3.55h2.17v3.55zm0-11.95h-2.17v-3.56h2.17v3.56zm0-11.97h-2.17v-3.55h2.17v3.55zm0-11.95h-2.17v-3.56h2.17v3.56zm0-5.98h-2.17v-3.56h2.17v3.56zm0-5.99h-2.17v-3.55h2.17v3.55zm0-5.98h-2.17v-3.55h2.17v3.55zm3.37 47.84h-2.17v-3.55h2.17v3.55zm0-5.97h-2.17v-3.56h2.17v3.56zm0-5.99h-2.17v-3.56h2.17v3.56zm0-5.98h-2.17v-3.55h2.17v3.55zm0-5.98h-2.17v-3.55h2.17v3.55zm0-11.95h-2.17v-3.56h2.17v3.56zm0-11.97h-2.17v-3.55h2.17v3.55zm0-5.97h-2.17v-3.56h2.17v3.56zm0-5.98h-2.17v-3.56h2.17v3.56zm3.37 65.63c-.06.05-.13.1-.19.14h-1.98v-3.55h2.17v3.41zm0-5.84h-2.17v-3.55h2.17v3.55zm0-5.97h-2.17v-3.56h2.17v3.56zm0-5.99h-2.17v-3.56h2.17v3.56zm0-11.96h-2.17v-3.55h2.17v3.55zm0-5.97h-2.17v-3.56h2.17v3.56zm0-5.98h-2.17v-3.56h2.17v3.56zm0-5.99h-2.17v-3.55h2.17v3.55zm0-11.95h-2.17v-3.56h2.17v3.56zm0-5.98h-2.17v-3.56h2.17v3.56zm3.38 63.05h-.91s-.46.71-1.27 1.53v-2.36h2.18v.83zm0-9.23h-2.18v-3.56h2.18v3.56zm0-11.97h-2.18v-3.55h2.18v3.55zm0-11.95h-2.18v-3.56h2.18v3.56zm0-11.97h-2.18v-3.55h2.18v3.55zm0-5.98h-2.18v-3.55h2.18v3.55zm0-5.97h-2.18v-3.56h2.18v3.56zm3.36 53.81h-2.18v-3.55h2.18v3.55zm0-11.96h-2.18v-3.56h2.18v3.56zm0-5.98h-2.18v-3.55h2.18v3.55zm0-5.98h-2.18v-3.55h2.18v3.55zm0-5.97h-2.18v-3.56h2.18v3.56zm0-5.98h-2.18v-3.56h2.18v3.56zm0-11.97h-2.18v-3.55h2.18v3.55zm0-5.97h-2.18v-3.56h2.18v3.56zm0-5.98h-2.18v-3.56h2.18v3.56zm3.38 65.77h-2.18v-3.55h2.18v3.55zm0-5.98h-2.18v-3.55h2.18v3.55zm0-11.96h-2.18v-3.56h2.18v3.56zm0-11.96h-2.18v-3.55h2.18v3.55zm0-11.95h-2.18v-3.56h2.18v3.56zm0-5.99h-2.18v-3.55h2.18v3.55zm0-5.98h-2.18v-3.55h2.18v3.55zm0-5.97h-2.18v-3.56h2.18v3.56zm0-5.98h-2.18v-3.56h2.18v3.56zm3.37 95.67h-.31v-3.56h.31v3.56zm0-11.96h-.31v-3.55h.31v3.55zm0-5.98h-.31v-3.56h.31v3.56zm0-5.98h-.31v-3.56h.31v3.56zm0-5.98h-2.17v-3.55h2.17v3.55zm0-5.98h-2.17v-3.55h2.17v3.55zm0-5.97h-2.17v-3.56h2.17v3.56zm0-5.99h-2.17v-3.56h2.17v3.56zm0-5.98h-2.17v-3.55h2.17v3.55zm0-5.98h-2.17v-3.55h2.17v3.55zm0-11.95h-2.17v-3.56h2.17v3.56zm0-5.99h-2.17v-3.55h2.17v3.55zm0-11.95h-2.17v-3.56h2.17v3.56zm0-5.98h-2.17v-3.56h2.17v3.56zm3.37 95.67h-2.17v-3.56h2.17v3.56zm0-5.98h-2.17v-3.55h2.17v3.55zm0-5.98h-2.17v-3.55h2.17v3.55zm0-5.98h-2.17v-3.56h2.17v3.56zm0-11.96h-2.17v-3.55h2.17v3.55zm0-11.95h-2.17v-3.56h2.17v3.56zm0-11.97h-2.17v-3.55h2.17v3.55zm0-11.95h-2.17v-3.56h2.17v3.56zm0-11.97h-2.17v-3.55h2.17v3.55zm0-11.95h-2.17v-3.56h2.17v3.56zm3.38 83.71h-2.17v-3.55h2.17v3.55zm0-5.98h-2.17v-3.55h2.17v3.55zm0-5.98h-2.17v-3.56h2.17v3.56zm0-11.96h-2.17v-3.55h2.17v3.55zm0-11.95h-2.17v-3.56h2.17v3.56zm0-5.99h-2.17v-3.56h2.17v3.56zm0-5.98h-2.17v-3.55h2.17v3.55zm0-5.98h-2.17v-3.55h2.17v3.55zm0-5.97h-2.17v-3.56h2.17v3.56zm0-5.98h-2.17v-3.56h2.17v3.56zm0-11.97h-2.17v-3.55h2.17v3.55zm0-5.97h-2.17v-3.56h2.17v3.56zm3.38 89.69H197v-3.56h2.18v3.56zm0-5.98H197v-3.55h2.18v3.55zm0-11.96H197v-3.56h2.18v3.56zm0-5.98H197v-3.56h2.18v3.56zm0-5.98H197v-3.55h2.18v3.55zm0-5.98H197v-3.55h2.18v3.55zm0-5.97H197v-3.56h2.18v3.56zm0-5.99H197v-3.56h2.18v3.56zm0-11.96H197v-3.55h2.18v3.55zm0-5.97H197v-3.56h2.18v3.56zm0-5.98H197v-3.56h2.18v3.56zm0-5.99H197v-3.55h2.18v3.55zm0-5.98H197v-3.55h2.18v3.55zm0-5.97H197v-3.56h2.18v3.56zm0-5.98H197v-3.56h2.18v3.56zm3.37 95.67h-2.18v-3.56h2.18v3.56zm0-5.98h-2.18v-3.55h2.18v3.55zm0-5.98h-2.18v-3.55h2.18v3.55zm0-11.96h-2.18v-3.56h2.18v3.56zm0-5.98h-2.18v-3.55h2.18v3.55zm0-5.98h-2.18v-3.55h2.18v3.55zm0-11.96h-2.18v-3.56h2.18v3.56zm0-5.98h-2.18v-3.55h2.18v3.55zm0-11.95h-2.18v-3.56h2.18v3.56zm0-5.98h-2.18v-3.56h2.18v3.56zm0-5.99h-2.18v-3.55h2.18v3.55zm0-5.98h-2.18v-3.55h2.18v3.55zm0-11.95h-2.18v-3.56h2.18v3.56zm3.37 95.67h-2.18v-3.56h2.18v3.56zm0-11.96h-2.18v-3.55h2.18v3.55zm0-5.98h-2.18v-3.56h2.18v3.56zm0-5.98h-2.18v-3.56h2.18v3.56zm0-11.96h-2.18v-3.55h2.18v3.55zm0-5.97h-2.18v-3.56h2.18v3.56zm0-11.97h-2.18v-3.55h2.18v3.55zm0-5.98h-2.18v-3.55h2.18v3.55zm0-11.95h-2.18v-3.56h2.18v3.56zm0-5.99h-2.18v-3.55h2.18v3.55zm0-17.93h-2.18v-3.56h2.18v3.56zm3.37 95.67h-2.17v-3.56h2.17v3.56zm0-5.98h-2.17v-3.55h2.17v3.55zm0-11.96h-2.17v-3.56h2.17v3.56zm0-11.96h-2.17v-3.55h2.17v3.55zm0-11.95h-2.17v-3.56h2.17v3.56zm0-5.99h-2.17v-3.56h2.17v3.56zm0-5.98h-2.17v-3.55h2.17v3.55zm0-5.98h-2.17v-3.55h2.17v3.55zm0-11.95h-2.17v-3.56h2.17v3.56zm0-11.97h-2.17v-3.55h2.17v3.55zm0-5.97h-2.17v-3.56h2.17v3.56zm3.37 83.71h-2.17v-3.55h2.17v3.55zm0-5.98h-2.17v-3.55h2.17v3.55zm0-5.98h-2.17v-3.56h2.17v3.56zm0-5.98h-2.17v-3.56h2.17v3.56zm0-5.98h-2.17v-3.55h2.17v3.55zm0-5.98h-2.17v-3.55h2.17v3.55zm0-5.97h-2.17v-3.56h2.17v3.56zm0-5.99h-2.17v-3.56h2.17v3.56zm0-11.96h-2.17v-3.55h2.17v3.55zm0-5.97h-2.17v-3.56h2.17v3.56zm0-11.97h-2.17v-3.55h2.17v3.55zm0-11.95h-2.17v-3.56h2.17v3.56zm0-5.98h-2.17v-3.56h2.17v3.56zm3.37 95.67h-2.17v-3.56h2.17v3.56zm0-11.96h-2.17v-3.55h2.17v3.55zm0-5.98h-2.17v-3.56h2.17v3.56zm0-5.98h-2.17v-3.56h2.17v3.56zm0-5.98h-2.17v-3.55h2.17v3.55zm0-5.98h-2.17v-3.55h2.17v3.55zm0-11.96h-2.17v-3.56h2.17v3.56zm0-5.98h-2.17v-3.55h2.17v3.55zm0-5.98h-2.17v-3.55h2.17v3.55zm0-5.97h-2.17v-3.56h2.17v3.56zm0-5.98h-2.17v-3.56h2.17v3.56zm0-11.97h-2.17v-3.55h2.17v3.55zm0-5.97h-2.17v-3.56h2.17v3.56zm0-5.98h-2.17v-3.56h2.17v3.56zm3.37 95.65c-.29.01-.58.01-.86.02h-1.31v-3.56h2.17v3.54zm0-5.96h-2.17v-3.55h2.17v3.55zm0-5.98h-2.17v-3.55h2.17v3.55zm0-11.96h-2.17v-3.56h2.17v3.56zm0-11.96h-2.17v-3.55h2.17v3.55zm0-5.97h-2.17v-3.56h2.17v3.56zm0-11.97h-2.17v-3.55h2.17v3.55zm0-5.98h-2.17v-3.55h2.17v3.55zm0-11.95h-2.17v-3.56h2.17v3.56zm0-5.99h-2.17v-3.55h2.17v3.55zm0-17.93h-2.17v-3.56h2.17v3.56zm114.85 93.87c-2.78.03-5.58.05-8.36.08-6.08.05-12.13.11-18.15.17-3.14.04-6.27.09-9.39.13H265.3v-2.01h68.94v1.63zm0-4.16h-68.94v-2.01h68.94v2.01zm0-9.08h-67.88v2.52h67.88v2.01h-68.94v-5.26h8.76v-1.29h60.18v2.02zm0-4.53h-60.18v-2.01h60.18v2.01zm0-4.54h-60.18v-2.01h60.18v2.01zm0-4.54h-60.18v-2.01h60.18v2.01zm64.68 26.51c-6.44.02-12.87.05-19.3.07v-6.16h19.3v6.09zm5.13-10.88s.02-1.84 1.21-2.16c1.2.32 1.21 2.16 1.21 2.16v4.89h-2.43v-4.89zm2.57 10.86h-2.71v-3.07s.02-1.5 1.36-1.77c1.34.27 1.36 1.77 1.36 1.77v3.07zm7.98-77.69h-1.4v-2.21s.04-.91.7-1.16c.66.25.7 1.16.7 1.16v2.21zm1.45-3.59s.07-1.47 1.13-1.88c1.06.41 1.13 1.88 1.13 1.88v3.59h-2.26v-3.59zm1.57 18.26c.14 0 .25.08.31.2-.06-.11-.17-.2-.31-.2zm.3.46c-.05.12-.17.2-.3.2.14 0 .25-.09.3-.2zm-.24-6.68v-1.98 1.98zm-.43 17.18c.18 0 .33.14.33.32 0-.18-.15-.32-.33-.32zm.33 1.03c0 .18-.14.32-.33.32.18 0 .33-.14.33-.32zm-.33-12.36c.18 0 .33.14.33.33 0-.18-.15-.33-.33-.33zm.33 1.07c0 .18-.14.33-.33.33.18 0 .33-.15.33-.33zm-.7 10.62c.02 0 .03.01.05.01-.01-.01-.03-.01-.05-.01zm.05.62c-.02 0-.04.01-.05.01.02 0 .04-.01.05-.01zm-.77-4v-6.11c0-.02 0-.52.44-.81.45.29.45.81.45.81v6.11h-.89zm.77-7.29c-.02 0-.04.01-.05.01.02 0 .04-.01.05-.01zm-.05-.65c.02 0 .03.01.05.01-.01 0-.03-.01-.05-.01zm-.72 13.09c0-.02 0-.51.44-.78.45.28.45.78.45.78v5.93h-.89v-5.93zm1.28 45.6h-.37v-1.28h.37v1.28zm0-10.63h-.37v-1.29h.37v1.29zm.49-16.79h-1.36v-5.4s.04-.91.68-1.07c.64.16.68 1.07.68 1.07v5.4zm.41-12.25h-.89v-5.93c0-.02 0-.51.44-.78.45.28.44.78.44.78v5.93zm-.42-7.26c-.05.11-.17.19-.3.19.14 0 .25-.08.3-.19zm-.3-.44c.14 0 .25.08.31.19-.06-.11-.17-.19-.31-.19zm.72-3.38h-.89v-6.11c0-.02 0-.52.44-.81.45.29.44.81.44.81v6.11zm2.81-22.61h-1.4v-2.21s.04-.91.7-1.16c.66.25.7 1.16.7 1.16v2.21zm4.05 69.72h-1.77V277s.04-1.11.88-1.45c.84.34.89 1.45.89 1.45v2.7zm10.37-23.04c.24 0 .43.19.43.42 0 .24-.19.43-.43.43-.03 0-.05-.01-.07-.02.01.03.02.05.02.07 0 .24-.19.43-.42.43-.24 0-.43-.19-.43-.43 0-.02.01-.04.02-.07-.03.01-.05.02-.07.02-.24 0-.43-.19-.43-.43 0-.23.19-.42.43-.42.03 0 .05.01.07.01-.01-.02-.02-.04-.02-.07 0-.24.19-.43.43-.43.23 0 .42.19.42.43 0 .02-.01.05-.02.07.03 0 .05-.01.07-.01zm-2.74-.66c0-.17.09-.31.22-.4-.1-.03-.19-.08-.26-.15-.01.16-.09.31-.24.39-.23.13-.52.05-.65-.17-.13-.23-.05-.53.18-.66.14-.08.32-.08.45-.01-.01-.05-.01-.1-.01-.15 0-.05 0-.1.01-.15-.14.07-.31.07-.45-.01-.23-.13-.31-.42-.18-.65.13-.23.43-.3.65-.17.15.08.23.23.24.39.07-.07.16-.12.26-.15-.13-.09-.22-.23-.22-.4 0-.27.22-.48.48-.48s.48.21.48.48c0 .17-.09.32-.22.4.1.03.18.08.26.15 0-.16.09-.31.23-.39.23-.13.52-.05.66.17.13.23.05.52-.18.65-.15.08-.32.08-.46.01.01.05.01.1.01.15 0 .05 0 .1-.01.15.14-.07.31-.07.46.01.23.13.31.43.18.66-.13.23-.43.31-.66.17-.15-.08-.23-.23-.23-.39-.08.06-.16.11-.26.15.13.09.22.23.22.4 0 .26-.22.48-.48.48-.27 0-.48-.21-.48-.48zm.11 3.04v7.94h-1.16v-7.94c0-.03.01-.68.58-1.05.57.37.58 1.02.58 1.05zm.73 0c0-.03.01-.68.58-1.05.57.37.58 1.02.58 1.05v7.94h-1.16v-7.94zm1.81-18.26v3.4h-.85v-3.4s-.07-.56.43-.77c.48.21.42.77.42.77zm-.8-2.22c.42.21.51.84.51.84-.64.23-.56-.24-.56-.24-.39-.37.05-.6.05-.6zm-.37 1.89v3.73h-.85v-3.73s-.07-.61.43-.85c.49.23.42.85.42.85zm-1.54-2.69c.07 0 .13.02.18.05-.03-.05-.05-.12-.05-.18 0-.22.18-.4.4-.4.22 0 .4.18.4.4 0 .06-.02.13-.05.18.05-.03.11-.05.18-.05.22 0 .4.18.4.4 0 .22-.18.4-.4.4-.07 0-.13-.02-.18-.04.03.05.05.12.05.18 0 .22-.18.4-.4.4-.22 0-.4-.18-.4-.4 0-.07.02-.13.05-.18-.05.03-.11.04-.18.04-.22 0-.4-.18-.4-.4 0-.22.18-.4.4-.4zm-.05 1.83c.49.24.43.85.43.85v3.73h-.85v-3.73c0 .01-.07-.61.42-.85zm-.79-1.03s.43.23.05.59c0 0 .07.48-.56.24 0 .01.09-.62.51-.83zm-.37 1.45c.5.21.43.77.43.77v3.4h-.85v-3.4c-.01 0-.07-.56.42-.77zm-.52 16.65c.02 0 .04.01.07.02-.01-.02-.02-.05-.02-.07 0-.24.19-.43.42-.43.24 0 .43.19.43.43 0 .02-.01.05-.02.07.03 0 .05-.01.07-.01.24 0 .43.19.43.42 0 .24-.19.43-.43.43-.02 0-.04-.01-.07-.02.01.03.02.05.02.07 0 .24-.19.43-.43.43-.23 0-.42-.19-.42-.43 0-.02.01-.04.02-.07-.03.01-.05.02-.07.02-.24 0-.43-.19-.43-.43s.19-.43.43-.43zm-.94 2.38c0-.03.01-.68.58-1.05.57.37.58 1.02.58 1.05v7.94h-1.16v-7.94zm2.67 28.63h-2.43V280h2.43v7.67zm3.5 0h-2.42V280h2.42v7.67zm-5.93-8.45c0-.04.01-3.3 2.96-4.44 2.95 1.14 2.96 4.39 2.96 4.44h-5.92zm6.18-12.24h-1.16v-7.94c0-.03.01-.68.58-1.05.58.37.58 1.03.58 1.05v7.94zm6.66 12.72h-1.77V277s.04-1.11.88-1.45c.84.34.89 1.45.89 1.45v2.7zm4.51-19.35.31.53c-.13.1-.26.23-.37.37l-.53-.31c.17-.22.37-.42.59-.59zm-.37 1.44c-.07.17-.11.34-.13.51h-.61c.03-.28.11-.55.22-.81l.52.3zm-1.86-54.02s.04-.91.7-1.16c.66.25.7 1.16.7 1.16v2.21h-1.39v-2.21zm1.11 55.15h.61c.02.18.07.34.13.51l-.53.31c-.1-.26-.18-.53-.21-.82zm1.12 1.95c-.23-.17-.43-.37-.59-.59l.53-.31c.11.14.24.26.37.37l-.31.53zm3.34-4.52c.23.17.43.37.59.59l-.53.31c-.11-.14-.23-.26-.37-.37l.31-.53zm-2.73-53.96s.07-1.47 1.13-1.88c1.07.41 1.13 1.88 1.13 1.88v3.59h-2.27v-3.59zm.69 30.21c-.18 0-.33-.14-.33-.32s.14-.32.33-.32c.02 0 .03.01.05.01 0-.01-.01-.03-.01-.05 0-.17.15-.32.33-.32.18 0 .33.14.33.32 0 .02-.01.04-.01.05.02 0 .04-.01.05-.01.18 0 .33.14.33.32s-.15.32-.33.32c-.02 0-.04-.01-.05-.01.01.02.01.04.01.05 0 .18-.15.32-.33.32-.18 0-.33-.14-.33-.32 0-.01.01-.03.01-.05-.01 0-.03.01-.05.01zm0-11.29c-.18 0-.33-.15-.33-.33 0-.18.14-.33.33-.33.02 0 .03.01.05.01 0-.02-.01-.03-.01-.05 0-.18.15-.33.33-.33.18 0 .33.14.33.33 0 .02-.01.04-.01.05.02 0 .04-.01.05-.01.18 0 .33.15.33.33 0 .18-.15.33-.33.33-.02 0-.04-.01-.05-.01.01.02.01.04.01.05 0 .18-.15.33-.33.33-.18 0-.33-.14-.33-.33 0-.02.01-.03.01-.05-.01 0-.03.01-.05.01zm.57 7.28v-6.11c0-.02 0-.52.44-.81.44.28.45.79.45.81v6.11h-.89zm.9 5.15v5.93h-.89v-5.93c0-.02 0-.51.44-.78.44.28.45.76.45.78zm-.15-20.38h-1.91v-3.11s.1-.64.95-.64.95.64.95.64v3.11zm-.54 34.91v1.92h-.81v-1.92h.81zm-.1 7.55c.28.03.56.1.81.22l-.31.53c-.17-.07-.34-.11-.51-.13v-.62zm-1.4-33.34c0-.02 0-.52.44-.81.44.28.45.79.45.81v6.11h-.89v-6.11zm0 11.26c0-.02 0-.51.44-.78.44.28.45.76.45.78v5.93h-.89v-5.93zm.78 22.08v.61c-.17.03-.35.07-.51.13l-.31-.53c.26-.11.54-.18.82-.21zm0 5.58c-.28-.03-.55-.11-.81-.22l.31-.53c.16.06.33.11.51.13v.62zm.5 17.94h-.37v-1.28h.37v1.28zm0-10.63h-.37v-1.29h.37v1.29zm.12-7.31v-.61c.17-.02.34-.07.5-.13l.31.53c-.25.11-.53.18-.81.21zm.58-2.77h-.82c.01.17.03.3.06.37.04.07.04.14.02.2-.04.09-.13.13-.14.13h-.02s-.1-.04-.14-.13c-.03-.06-.02-.13.02-.2.03-.05.05-.17.06-.32-.13.11-.26.17-.38.17-.13 0-.21-.06-.21-.06s-.04-.04-.04-.08c0-.03.02-.05.06-.07.04-.02.07-.03.1-.04.04-.01.04-.01.04-.04s0-.03-.04-.04c-.03-.01-.06-.02-.1-.04-.03-.02-.05-.05-.05-.08 0-.04.04-.07.04-.08 0 0 .08-.06.21-.06s.26.05.38.17l.01.01c.01-.29.01-.63.01-.89v-.25c-.05-.05-.24-.3.04-.81 0-.01.01-.01.02-.01h.01c.01 0 .01 0 .02.01.28.51.08.76.04.81v.26c0 .27-.01.62 0 .91h.82c.03-.04.11-.14.32-.14.17 0 .39.06.64.19.01 0 .02.01.02.02s-.01.02-.02.02c-.26.12-.47.19-.65.19-.22.01-.3-.08-.33-.12zm.78 2.24-.31-.53c.14-.11.26-.24.37-.37l.53.31c-.16.22-.36.42-.59.59zm.9-1.13-.53-.31c.06-.16.11-.33.13-.51h.61c-.02.29-.09.56-.21.82zm-.39-1.44c-.02-.17-.07-.34-.13-.5l.53-.31c.11.26.19.53.22.81h-.62zm1.86-52.32h-1.4v-2.21s.04-.91.7-1.16c.66.25.7 1.16.7 1.16v2.21zm6.73 71.32c.17.13.33.27.49.41h-.49v-.41zm2.57 6.37H460v-3.07s.02-1.5 1.36-1.77c.26.05.46.16.63.29.19.24.38.48.55.73.16.4.17.76.17.76v3.06zm12.65.27c-.71 0-1.42-.01-2.14-.01-.84-.01-1.69-.01-2.54-.02.99-2.45 2.47-5.01 4.67-6.68v6.71zm23.49-23.99v-1.27h1.12v1.27h-1.12zm1.12.45v3.94h-1.12v-3.94h1.12zm-1.91-27.71h1.12v1.27h-1.12v-1.27zm0 1.72h1.12v4.39h-1.12v-4.39zm0 10.49h1.12v1.27h-1.12v-1.27zm0 1.72h1.12v4.39h-1.12v-4.39zm-1.12 12.89v-1.27h1.12v1.27h-1.12zm1.12.45v4.39h-1.12v-4.39h1.12zm-1.86-27.27h1.12v1.27h-1.12v-1.27zm0 1.72h1.12v4.39h-1.12v-4.39zm0 10.49h1.12v1.27h-1.12v-1.27zm0 1.72h1.12v4.39h-1.12v-4.39zm-1.17 13.33v-1.27h1.12v1.27h-1.12zm1.12.45v3.94h-1.12v-3.94h1.12zm-1.81-27.71h1.12v1.27h-1.12v-1.27zm0 1.72h1.12v4.39h-1.12v-4.39zm0 10.49h1.12v1.27h-1.12v-1.27zm0 1.72h1.12v4.39h-1.12v-4.39zm-1.22 12.63h1.12v1.27h-1.12v-1.27zm-2.72-37.65h.57v1.55h-.57v-1.55zm-.69-5.4c.12-.18-.11-.76.25-.76s.12.58.25.76c.12.17.05.61.05.81 0 .2-.1.75-.1.75h.1v.59l-.3-.44-.3.44v-.6h.1s-.1-.55-.1-.75c0-.19-.08-.62.05-.8zm-.78 5.4h.57v1.55h-.57v-1.55zm-4.48 11.09h1.12v1.27h-1.12v-1.27zm0 1.72h1.12v4.39h-1.12v-4.39zm0 10.49h1.12v1.27h-1.12v-1.27zm0 1.72h1.12v4.39h-1.12v-4.39zm-.69 12.06h1.12v1.27h-1.12v-1.27zm0 1.72h1.12v3.94h-1.12v-3.94zm-1.17-27.71h1.12v1.27h-1.12v-1.27zm0 1.72h1.12v4.39h-1.12v-4.39zm0 10.49h1.12v1.27h-1.12v-1.27zm0 1.72h1.12v4.39h-1.12v-4.39zm-.74 12.89v-1.27h1.12v1.27h-1.12zm1.12.45v4.39h-1.12v-4.39h1.12zm-2.24-27.27h1.12v1.27h-1.12v-1.27zm0 1.72h1.12v4.39h-1.12v-4.39zm0 10.49h1.12v1.27h-1.12v-1.27zm0 1.72h1.12v4.39h-1.12v-4.39zm-.79 12.06h1.12v1.27h-1.12v-1.27zm0 1.72h1.12v3.94h-1.12v-3.94zm-1.91-1.15h1.12v1.27h-1.12v-1.27zm0 1.72h1.12v3.38h-1.12v-3.38zm2.06 17.96h-1.12v-4.67h1.12v4.67zm1.89 0h-1.12v-4.67h1.12v4.67zm0-5.63h-1.12v-2.76h1.12v2.76zm1.98 5.63h-1.12v-4.67h1.12v4.67zm0-5.63h-1.12v-2.76h1.12v2.76zm1.89 5.63h-1.12v-4.67h1.12v4.67zm.94-14.58h-1.12v-3.38h1.12v3.38zm0-3.83h-1.12v-1.27h1.12v1.27zm2.84-12.73h-1.12v-2.89h1.12v2.89zm0-3.34h-1.12v-1.27h1.12v1.27zm0-8.87h-1.12v-2.89h1.12v2.89zm0-3.34h-1.12v-1.27h1.12v1.27zm.33-11.71c-.21 0-.37-.17-.37-.38 0-.2.17-.37.37-.37.2 0 .37.17.37.37 0 .21-.17.38-.37.38zm1.44 27.26h-1.12v-2.89h1.12v2.89zm0-3.34h-1.12v-1.27h1.12v1.27zm0-8.87h-1.12v-2.89h1.12v2.89zm0-3.34h-1.12v-1.27h1.12v1.27zm1.72 28.73h1.12v3.38h-1.12v-3.38zm2.06 17.96h-1.12v-4.67h1.12v4.67zm1.89 0h-1.12v-4.67h1.12v4.67zm0-5.63h-1.12v-2.76h1.12v2.76zm1.98 10.83h-.21.21zm0-5.2h-1.12v-4.67h1.12v4.67zm0-5.63h-1.12v-2.76h1.12v2.76zm1.89 5.63h-1.12v-4.67h1.12v4.67zm.94-14.58h-1.12v-3.38h1.12v3.38zm0-3.83h-1.12v-1.27h1.12v1.27zm8.85-16.28h1.41v1.74h-1.41v-1.74zm0 2.37h1.41v3.45h-1.41v-3.45zm.6 12.02v2.61h-1.41v-2.61h1.41zm-1.4 16.41v-2.61h1.41v2.61h-1.41zm1.4.69v3.82h-1.41v-3.82h1.41zm-1.4-9.99v-3.82h1.41v3.82h-1.41zm-1.27-21.5h1.4v1.74h-1.4v-1.74zm0 2.37h1.4v3.45h-1.4v-3.45zm-.8 12.7h1.41v1.93h-1.41v-1.93zm0 2.62h1.41v3.82h-1.41v-3.82zm0 11.18h1.41v1.92h-1.41v-1.92zm0 2.62h1.41v3.82h-1.41v-3.82zm2.19 8.53c-.24 0-.48-.01-.72-.01h-.4v-.12h1.12v.13zm1.94.02c-.37 0-.75-.01-1.12-.01v-.14h1.12v.15zm1.41-4.73h-1.41v-3.82h1.41v3.82zm0-4.51h-1.41v-1.92h1.41v1.92zm0-9.3h-1.41v-3.82h1.41v3.82zm0-4.51h-1.41v-1.93h1.41v1.93zm56.42-16.99h1.4v1.74h-1.4v-1.74zm0 2.37h1.4v3.45h-1.4v-3.45zm-.91 14.62v-1.93h1.41v1.93h-1.41zm1.4.7v3.82h-1.41v-3.82h1.41zm-2.56-17.69h1.4v1.74h-1.4v-1.74zm0 2.37h1.4v3.45h-1.4v-3.45zm-2.94 12.7h1.41v1.93h-1.41v-1.93zm0 2.62h1.41v3.82h-1.41v-3.82zm-2.06-3.3h1.4v2.61h-1.4v-2.61zm0 3.3h1.4v3.82h-1.4v-3.82zm-2.07-2.62h1.41v1.93h-1.41v-1.93zm-4.77-15.07h1.41v1.74h-1.41v-1.74zm0 2.37h1.41v3.45h-1.41v-3.45zm-1.38 12.02h1.4v2.61h-1.4v-2.61zm0 3.3h1.4v3.82h-1.4v-3.82zm-2.12-34.08.59-.16c.04-.01.07-.05.07-.1v-.53l.86.54-.01.73c-.02.84-.01 1.69-.02 2.53v1.04h-.16v-.81c0-.03-.02-.07-.05-.08l-1.27-.82v-2.34zm.89 17.97c.08.18.13.37.15.56h-.42c-.02-.12-.05-.24-.1-.35l.37-.21zm-.6-.18c-.07-.1-.16-.19-.26-.26l.21-.37c.16.12.3.26.41.41l-.36.22zm.75 1.2c-.02.2-.07.38-.15.56l-.37-.21c.04-.11.08-.23.1-.35h.42zm-.38.96c-.12.15-.25.29-.41.41l-.21-.36c.1-.08.18-.17.26-.26l.36.21zm-.61 14.13h1.4v3.82h-1.4v-3.82zm0-.7v-1.93h1.4v1.93h-1.4zm-.76-16.6c.2.02.39.07.57.15l-.21.37c-.12-.05-.24-.08-.35-.09v-.43zm-.46 0v.43c-.12.02-.24.05-.35.09l-.21-.37c.17-.08.37-.13.56-.15zm-.35.57c.12-.05.25-.08.38-.1.07-.01.13-.01.2-.01s.14.01.2.01c.13.02.25.05.38.1.12.05.24.12.34.2.11.08.2.18.28.28.08.1.15.22.2.35.05.12.09.25.1.38.01.06.01.13.01.2s-.01.14-.01.2c-.02.14-.05.26-.1.38s-.12.23-.2.34c-.08.11-.17.2-.28.28-.11.08-.22.15-.35.2-.12.05-.25.09-.38.1-.13.02-.27.02-.4 0s-.26-.05-.38-.1-.24-.12-.35-.2c-.1-.08-.2-.17-.28-.28-.08-.1-.15-.22-.2-.35-.05-.12-.08-.25-.1-.38v-.01c-.01-.07-.01-.13-.01-.2s0-.14.01-.2c.02-.13.05-.26.1-.38.05-.13.12-.24.2-.35.08-.11.18-.2.28-.28.12-.06.23-.13.36-.18zm1.37 3.24c-.18.08-.37.13-.57.15v-.42c.12-.02.24-.05.35-.09l.22.36zm-1.02-.27v.42c-.2-.02-.39-.07-.56-.15l.21-.37c.11.05.23.08.35.1zm-1.23-2.14c-.05.12-.08.24-.1.35h-.42c.02-.2.07-.38.15-.56l.37.21zm-.14-.61c.12-.16.25-.3.41-.41l.21.37c-.09.07-.18.16-.26.26l-.36-.22zm.04 1.42c.02.12.05.24.1.35l-.37.21c-.08-.18-.13-.37-.15-.56h.42zm.33.75c.08.1.17.18.26.25l-.21.37c-.16-.12-.3-.26-.41-.41l.36-.21zm-.37-20.52v.53c0 .05.03.09.07.1l.58.16v2.36l-1.27.82c-.03.02-.05.05-.05.08v.81h-.16v-1.04c-.01-.84 0-1.69-.02-2.53l-.01-.73.86-.56zm-1.5 32.24h1.41v1.93h-1.41v-1.93zm0 2.62h1.41v3.82h-1.41v-3.82zm-2.07-.7v-2.61h1.41v2.61h-1.41zm1.41.7v3.82h-1.41v-3.82h1.41zm-1.58-17.69h1.4v1.74h-1.4v-1.74zm-2.07 0h1.4v1.74h-1.4v-1.74zm-3.92 15.07h1.4v1.93h-1.4v-1.93zm0 2.62h1.4v3.82h-1.4v-3.82zm-2.06-3.3h1.41v2.61h-1.41v-2.61zm0 3.3h1.41v3.82h-1.41v-3.82zm-2.07-2.62h1.41v1.93h-1.41v-1.93zm0 2.62h1.41v3.82h-1.41v-3.82zm-1.73-17.69h1.41v1.74h-1.41v-1.74zm0 2.37h1.41v3.45h-1.41v-3.45zm-2.06-2.37h1.41v1.74h-1.41v-1.74zm0 2.37h1.41v3.45h-1.41v-3.45zm-.3 12.7h1.41v1.93h-1.41v-1.93zm0 2.62h1.41v3.82h-1.41v-3.82zm-13.57-17.69h1.41v1.74h-1.41v-1.74zm0 2.37h1.41v3.45h-1.41v-3.45zm-.2 12.02h1.4v2.61h-1.4v-2.61zm0 3.3h1.4v3.82h-1.4v-3.82zm-2.06-2.62h1.4v1.93h-1.4v-1.93zm0 2.62h1.4v3.82h-1.4v-3.82zm2.43 17.62h-1.41v-3.82h1.41v3.82zm0-4.51h-1.41v-1.92h1.41v1.92zm2.07 4.51h-1.4v-3.82h1.4v3.82zm0-4.51h-1.4v-1.92h1.4v1.92zm1.03-9.3h-1.41v-3.82h1.41v3.82zm0-4.51h-1.41v-1.93h1.41v1.93zm.21-11.17h-1.41v-3.45h1.41v3.45zm0-4.08h-1.41v-1.74h1.41v1.74zm7.36 19.76h-1.41v-3.82h1.41v3.82zm0-4.51h-1.41v-1.93h1.41v1.93zm2.07 4.51h-1.41v-3.82h1.41v3.82zm0-4.51h-1.41v-2.61h1.41v2.61zm10.51 21.98-.14.33v1.13c-3.38-.06-6.77-.11-10.18-.16v-.97l-.13-.33v-4.89s-.04-5.33 5.23-6.92c5.27 1.59 5.23 6.92 5.23 6.92v4.89zm2.29-36.6h1.4v3.45h-1.4v-3.45zm1.58 19.13h-1.41v-3.82h1.41v3.82zm0-4.51h-1.41v-1.93h1.41v1.93zm.49-14.62h1.4v3.45h-1.4v-3.45zm10.62 36.6-.14.33v1.38c-3.38-.06-6.77-.11-10.18-.17v-1.21l-.14-.33v-4.89s-.04-5.33 5.23-6.92c5.27 1.59 5.23 6.92 5.23 6.92v4.89zm1.25-17.47h-1.41v-3.82H558v3.82zm0-4.51h-1.41v-1.93H558v1.93zm1.38-11.17h-1.41v-3.45h1.41v3.45zm0-4.08h-1.41v-1.74h1.41v1.74zm1.3 15.95h1.41v3.82h-1.41v-3.82zm11.05 21.28-.13.33v1.65c-3.38-.07-6.77-.13-10.18-.19v-1.46l-.14-.33v-4.89s-.05-5.33 5.23-6.92c5.27 1.59 5.22 6.92 5.22 6.92v4.89zm.65-17.47h-1.4v-3.82h1.4v3.82zm0-4.51h-1.4v-2.61h1.4v2.61zm2.06 4.51h-1.4v-3.82h1.4v3.82zm0-4.51h-1.4v-1.93h1.4v1.93zm3.36-58.26h-.81v-2.5h.81v2.5zm0-4.98h-.81v-2.5h.81v2.5zm1.31 4.98h-.5v-2.5h.5v2.5zm0-4.98h-.5v-2.5h.5v2.5zm1.2-2.5h-.62v-.53l.62-.37v.9zm6.88-6.42h1.49v2.65h-1.49v-2.65zm-2.25 68.68v-1.24h1.41v1.24h-1.41zm1.4.41v5.37h-1.4v-5.37h1.4zm-1.4-6.47v-5.37h1.4v5.37h-1.4zm0-5.79v-1.24h1.41v1.24h-1.41zm0-6.06v-5.37h1.4v5.37h-1.4zm0-5.81v-1.25h1.41v1.25h-1.41zm1.4-8.3v3.14h-1.4v-3.14h1.4zm-1.4-5.61v-3.14h1.4v3.14h-1.4zm1.4-8.74h-1.4v-3.14h1.4v3.14zm-1.71-22.31h1.49v2.65h-1.49v-2.65zm-2.38 11.4s0-1.6 1.52-1.6c1.53 0 1.53 1.6 1.53 1.6v3.32h-3.05v-3.32zm2.19 63.07h-1.41v-3.78h1.41v3.78zm0-4.23h-1.41v-1.24h1.41v1.24zm0-7.62h-1.41v-3.77h1.41v3.77zm0-4.23h-1.41v-1.24h1.41v1.24zm0-7.62h-1.41v-3.78h1.41v3.78zm0-4.25h-1.41v-1.24h1.41v1.24zm.5 35.05h1.4v4.6h-1.4v-4.6zm3.26 9.58v4.59h-3.09v-4.59s-.13-1.53 1.54-1.53 1.55 1.53 1.55 1.53zm.17-4.98h-1.41v-4.6h1.41v4.6zm0-11.7h-1.41v-5.37h1.41v5.37zm0-5.79h-1.41v-1.24h1.41v1.24zm0-6.06h-1.41v-5.37h1.41v5.37zm0-5.79h-1.41v-1.24h1.41v1.24zm0-6.06h-1.41v-5.37h1.41v5.37zm0-5.81h-1.41v-1.25h1.41v1.25zm0-5.16h-1.41v-3.14h1.41v3.14zm0-8.75h-1.41v-3.14h1.41v3.14zm0-8.74h-1.41v-3.14h1.41v3.14zm1.9 52.16h-1.41v-3.78h1.41v3.78zm0-4.23h-1.41v-1.24h1.41v1.24zm0-7.62h-1.41v-3.77h1.41v3.77zm0-4.23h-1.41v-1.24h1.41v1.24zm0-7.62h-1.41v-3.78h1.41v3.78zm0-4.25h-1.41v-1.24h1.41v1.24zm.78-31.8H588v-3.32s0-1.6 1.52-1.6 1.52 1.6 1.52 1.6v3.32zm2.56-8.3h-.62v-.9l.62.37v.53zm1.1 7.48h-.51v-2.5h.51v2.5zm0-4.98h-.51v-2.5h.51v2.5zm1.61 4.98h-.81v-2.5h.81v2.5zm0-4.98h-.81v-2.5h.81v2.5zm26.84 88.39c-3.92-.11-7.87-.21-11.87-.31-4.74-.12-9.55-.23-14.41-.34v-9.01c2.09-.23 4.55-.36 7.44-.36 17.36 0 19.04 4.9 19.14 5.22l-.3 4.8zm2.72-24.08c-.01-.02-.02-.02-.04-.02-.04 0-.04-.17-.04-.23 0-.13-.05-.18-.09-.19v-.08c0-.11.03-.19.08-.25.03-.02.05-.03.08-.04v.81zm40.55 25.38c-11.95-.4-24.51-.79-37.59-1.15l-.3-4.95c.09-.33 1.79-5.22 19.14-5.22 17.36 0 19.04 4.9 19.14 5.22l-.39 6.1zm4.35-27.98c-.03 0-.03-.19-.03-.28 0-.16-.07-.21-.12-.23v-.1c0-.14.04-.24.1-.3.03-.03.06-.04.09-.06v1c0-.02-.01-.03-.04-.03zm.5 11.33h-.65v-2.11h.65v2.11zm36.69-61.87c3.58.02 7.03.58 10.27 1.63l-2.9 8.93c-2.33-.74-4.81-1.15-7.37-1.17v-9.39zm0 9.69c2.54.02 4.98.42 7.28 1.15l-2.65 8.15c-1.47-.46-3.02-.72-4.64-.73v-8.57zm0 8.86c1.58.02 3.11.26 4.54.72l-2.96 9.11-.09.14.11-5.83c0-.02-.01-.04-.03-.04-.02 0-.04.01-.04.03l-1.53 5.41v-9.54zm0 22.77 1.16 4.67c.01.02.02.03.04.03s.03-.02.03-.04l.06-4.31 3.03 7.53c-1.37.41-2.82.64-4.32.65v-8.53zm0 8.83c1.54-.02 3.03-.25 4.44-.67l1.14 2.83 1.71 5.25c-2.3.73-4.75 1.13-7.28 1.15v-8.56zm7.21 6.2.44 1.09c-.03.01-.05.02-.08.03l-.36-1.12zm-7.51-56.35v9.39c-2.57.02-5.05.42-7.38 1.17l-2.9-8.93c3.25-1.05 6.7-1.61 10.28-1.63zm-9.13 63.25 1.76-5.41c2.33.74 4.8 1.15 7.38 1.17v4.24h-9.14zm7.8 5.09c-2.33-.1-4.6-.42-6.79-.96 2.78.19 5.01.54 6.79.96zm-1.44-39.28-2.54-2.63-3.61-4.96c1.24-.89 2.62-1.6 4.09-2.09l2.18 6.7-1.49-2.69c-.01-.02-.03-.02-.05-.02-.02.01-.03.03-.02.04l1.44 5.65zm-1.26.93-5-3.01c-.02-.01-.04-.01-.05.01-.01.02-.01.04 0 .05l.89.91-4.23-3.07c.92-1.24 2.01-2.33 3.25-3.25l2.34 3.23c-.01-.01-.03-.01-.05 0-.02.01-.02.03-.01.05l2.86 5.08zm-2.93-.77 1.95 2.01-5.6-1.61c-.02 0-.04 0-.05.02-.01.02 0 .04.02.05l3.16 1.88-7.2-2.34c.5-1.47 1.2-2.85 2.09-4.09l5.63 4.08zm.64 3.03.69.41-5.83-.1c-.02 0-.04.01-.04.03 0 .02.01.04.03.04l5.02 1.42h-9.04c.02-1.58.26-3.11.72-4.54l8.45 2.74zm-.08 2.1-5.13 1.27c-.02 0-.03.02-.03.04s.02.03.04.03l5.83.08-.71.39-8.38 2.72c-.45-1.44-.7-2.96-.72-4.54h9.1zm-1.37 2.58-3.02 1.67c-.02.01-.02.03-.02.05.01.02.03.03.04.02l5.65-1.43-2.52 2.43-4.97 3.61c-.89-1.24-1.6-2.62-2.09-4.1l6.93-2.25zm-1.4 4.23-.13.13c-.01.01-.01.03 0 .05.01.02.03.02.05.01l5.09-2.85-3.01 5c-.01.02-.01.04.01.05.02.01.04.01.05 0l1.01-.99-3.06 4.21c-1.24-.92-2.33-2.02-3.25-3.25l3.24-2.36zm4.34.16 1.66-1.61-3.77 8.44c-.69-.35-1.35-.76-1.97-1.2l4.08-5.63zm-4.27-20.1-5.03-6.93c1.98-1.43 4.19-2.57 6.56-3.35l2.65 8.15c-1.5.5-2.91 1.22-4.18 2.13zm-.24.17c-1.26.94-2.38 2.05-3.32 3.32l-6.93-5.03c1.47-1.99 3.22-3.75 5.21-5.22l5.04 6.93zm-3.49 3.56c-.91 1.27-1.63 2.67-2.14 4.18l-8.15-2.65c.79-2.37 1.93-4.58 3.35-6.57l6.94 5.04zm-2.23 4.47c-.46 1.46-.72 3.02-.73 4.64h-8.57c.02-2.54.42-4.99 1.15-7.29l8.15 2.65zm-.73 4.93c.01 1.61.27 3.17.73 4.64l-8.15 2.65c-.73-2.3-1.14-4.75-1.15-7.29h8.57zm.83 4.92c.5 1.51 1.23 2.91 2.14 4.18l-6.93 5.03c-1.43-1.99-2.57-4.2-3.35-6.57l8.14-2.64zm2.31 4.42c.94 1.26 2.06 2.38 3.32 3.32l-5.04 6.93c-1.99-1.46-3.75-3.22-5.21-5.21l6.93-5.04zm-1.65 10.66c1.14.82 2.34 1.55 3.61 2.17l-3.01 6.73h-4.16c-.67-.42-1.32-.85-1.96-1.3l5.52-7.6zm.17-.24 5.03-6.93c.64.46 1.32.87 2.03 1.23l-3.5 7.83c-1.25-.61-2.44-1.32-3.56-2.13zm6.93 2.24-.36 1.12c-.02-.01-.05-.02-.08-.03l.44-1.09zm-.55 1.37c.03.01.06.02.1.03l-1.79 5.5h-.54l2.23-5.53zm.47-.16 1.71-5.25 1.14-2.83c1.41.42 2.89.66 4.43.67v8.57c-2.54-.02-4.98-.42-7.28-1.16zm2.96-8.36 2.79-6.92-.07 3.65c0 .02.01.04.03.04.02 0 .04-.01.04-.03l1.53-5.43V263c-1.5-.01-2.95-.24-4.32-.64zm3.16-26.56c-.01-.02-.02-.03-.04-.03s-.03.02-.03.04l-.08 5.83-.57-1.03-2.66-8.17c1.44-.45 2.96-.7 4.55-.72v8.77l-1.17-4.69zm-3.47-3.65-2.65-8.15c2.3-.73 4.75-1.14 7.29-1.15v8.57c-1.62.01-3.18.26-4.64.73zm-5.93-17.27 2.9 8.93c-2.4.8-4.63 1.95-6.65 3.4l-5.52-7.6c2.81-2.02 5.93-3.63 9.27-4.73zm-9.5 4.91 5.52 7.59c-2.01 1.49-3.79 3.27-5.28 5.28l-7.59-5.52c2.06-2.8 4.54-5.29 7.35-7.35zm-7.53 7.6 7.6 5.52c-1.45 2.01-2.6 4.25-3.4 6.65l-8.93-2.9c1.1-3.36 2.7-6.47 4.73-9.27zm-4.83 9.54 8.93 2.9c-.74 2.33-1.15 4.81-1.17 7.38h-9.39c.02-3.58.59-7.03 1.63-10.28zm-1.63 10.58h9.39c.01 2.57.42 5.05 1.17 7.37l-8.93 2.91c-1.04-3.25-1.61-6.7-1.63-10.28zm1.72 10.56 8.93-2.9c.8 2.4 1.95 4.64 3.4 6.65l-7.6 5.52c-2.02-2.81-3.62-5.92-4.73-9.27zm4.91 9.51 7.59-5.52c1.49 2.01 3.27 3.79 5.28 5.28l-5.52 7.59c-2.8-2.06-5.28-4.54-7.35-7.35zm-4.76 24.41-.39-6.41c.09-.3 1.47-4.26 14.27-5.07.17.5.51.9.98 1.14.28.14.59.22.9.22.1 0 .19-.01.28-.02l-4.72 10.56c-3.7-.14-7.47-.28-11.32-.42zm37.5 1.46c-6.93-.29-14.19-.59-21.8-.88l3.76-9.33c.24.34.58.59.99.72.2.07.41.1.62.1.86 0 1.63-.55 1.89-1.38.17-.53.11-1.08-.13-1.54.87.24 1.76.46 2.65.64-.43.3-.73.76-.82 1.31-.08.53.04 1.05.36 1.48.31.43.77.71 1.3.8.1.01.21.02.31.02.99 0 1.81-.71 1.96-1.68.09-.55-.06-1.08-.37-1.5.9.11 1.8.18 2.72.21l-.02.02c-.38.38-.58.88-.58 1.41 0 .53.21 1.03.58 1.41.38.38.87.58 1.41.58 1.1 0 1.99-.89 1.99-1.99 0-.56-.23-1.06-.6-1.42.03 0 .06 0 .09-.01.95.38 1.69.78 2.25 1.15 0 .05 0 .09.01.14.14.89.85 1.55 1.72 1.66.05.1.07.17.08.21l-.37 7.87zm2.81-20.97v2.71c-.07.05-.17.17-.17.45v.07h-2.1c-.09 0-.17.08-.17.17v.53h-5.4v-4.24c2.57-.02 5.04-.42 7.37-1.17l.47 1.44c.01.02 0 .03 0 .04zm.03-.96-.2-.61c.03-.01.06-.02.1-.03l.1.26v.38zm.44-8.46-.27.66-.96-2.15c.42-.22.83-.45 1.23-.7v2.19zm0-2.55c-.44.28-.88.55-1.35.79l-3.53-7.91 2.57 2.66 2.31 3.18v1.28zm0-1.77-1.65-2.28-2.61-4.67 4.26 2.56v4.39zm0-4.8-.86-.88.86.62v.26zm0-.62-2.08-1.51-1.21-1.24 3.29.94v1.81zm0-2.61-1.64-.98 1.64.53v.45zm0-.76-2.54-.82 2.54.05v.77zm0-1.69-2.44-.69.23-.06h2.2v.75zm0-1.05h-1l1-.25v.25zm0-1.17-2.61-.04 1.68-.93.93-.3v1.27zm.43-2.41-3.62.92 3.45-3.32.17-.13v2.53zm0-2.9-.05.04-4.5 2.52 3.01-5c.01-.02.01-.04-.01-.05-.02-.01-.04-.01-.05 0l-1.57 1.53 3.18-4.37v5.33zm0-5.84-4.43 6.1-1.35 1.31 1.61-5.6c.01-.02 0-.04-.02-.05-.02-.01-.04 0-.05.02l-2.21 3.71 2.56-7.86c1.37.46 2.64 1.11 3.81 1.91l.08.24v.22zm0-9.52v7.92l-.26.21v.47c-1.1-.71-2.29-1.3-3.55-1.72l2.65-8.15c.67.22 1.33.48 1.97.76l-.81.51zm6.96 46.59c-.34 0-.62-.28-.62-.62 0-.34.28-.62.62-.62.34 0 .62.28.62.62-.01.34-.28.62-.62.62zm.49-36.28v4.24h-.98v-3.53l.98-.71zm-.98.35v-.45h.62l-.62.45zm.98 12.18v1.06h-.51c.04-.35.07-.7.09-1.06h.42zm-.72 0c-.02.36-.05.71-.09 1.06h-.17v-1.06h.26zm.72 7.13v3.58h-.16l-.82-.6v-2.98h.98zm-.93 11.06v-.97h.88v.22c-.29.27-.59.51-.88.75zm.88-.33v2.18h-.88v-1.47c.29-.23.59-.46.88-.71zm-.61-7.14h-.32v-.23l.32.23zm1.23-32.84h-1.26l1.26-1.73v1.73zm0-2.68v.44l-1.63 2.24h-.5v-2.68h-1.96l-1.53 1.45h-.36v-.77l-.93.58c-.71-.31-1.44-.61-2.18-.86l2.9-8.93c3.35 1.11 6.46 2.71 9.27 4.74l-2.76 3.79h-.32zm6.32 31.79c0 .01 0 .01-.01.02v-.16h.01v.14zm0-.45-.01-1.52h.01v1.52zm3.09 39.42h-1.63v-5.43h1.63v5.43zm-2.78-57.05h-.74v-2.44l.26-.72v-.46l-.26-.21v-2.3l3.6-2.62-2.86 8.75zm3.02-9.23-3.76 2.73v-5.25l-2.04-1.28v.77h-.36l-1.53-1.45h-1.27l2.63-3.62c2.57 1.89 4.85 4.14 6.81 6.66l-.48 1.44zm10.19 21.95h1.56v2.94h-.29c-.11-.71-.58-1.32-1.27-1.58v-1.36zm-4.06-9.11h.85c.13.64.24 1.29.33 1.94v.29h-1.19v-2.23zm-4.44 9.11h1.56v2.94h-1.56v-2.94zm10.71 45.2c-3.61-.19-7.4-.38-11.36-.58V282.7h11.36v12.34zm2.91-.87h-1.63v-5.43h1.63v5.43zm1.46-38.64-.01-2.3h.01v2.3zm6.89-19.95h.98v4.34h-.98v-4.34zm0 12.63h.98v1.06h-.98v-1.06zm0 7.13h.98v3.58h-.98v-3.58zm.93 10.1v2.81h-.88v-2.81h.88zm-.44 21.33c-.34 0-.62-.28-.62-.62 0-.34.28-.62.62-.62.34 0 .62.28.62.62 0 .34-.28.62-.62.62zm0-14.81c-.34 0-.62-.28-.62-.62 0-.34.28-.62.62-.62.34 0 .62.28.62.62 0 .34-.28.62-.62.62z"/>
</svg>
